<?xml version="1.0" encoding="UTF-8"?>
<svg version="1.1" xmlns="http://www.w3.org/2000/svg" width="64" height="64">
<path d="M0 0 C2.8125 2.4375 2.8125 2.4375 5 5 C5.721875 5.804375 6.44375 6.60875 7.1875 7.4375 C11.97913604 14.21188199 11.73339699 22.02207173 11 30 C8.83431117 37.81434113 4.39454465 43.81263734 -2.6015625 47.921875 C-10.38484943 51.42055121 -18.99191711 51.95865131 -27 49 C-33.91090204 45.67335834 -38.81146544 41.01048171 -42 34 C-44.57008362 25.53585796 -44.70841444 17.62657142 -40.83984375 9.58984375 C-37.16567356 3.45940379 -31.99719727 -1.28517231 -25.14453125 -3.63671875 C-16.3977799 -5.11840887 -7.55439364 -4.97169496 0 0 Z " fill="#F1F9FA" transform="translate(48,9)"/>
<path d="M0 0 C2.8125 2.4375 2.8125 2.4375 5 5 C5.721875 5.804375 6.44375 6.60875 7.1875 7.4375 C11.97913604 14.21188199 11.73339699 22.02207173 11 30 C8.83431117 37.81434113 4.39454465 43.81263734 -2.6015625 47.921875 C-10.38484943 51.42055121 -18.99191711 51.95865131 -27 49 C-33.91090204 45.67335834 -38.81146544 41.01048171 -42 34 C-44.57008362 25.53585796 -44.70841444 17.62657142 -40.83984375 9.58984375 C-37.16567356 3.45940379 -31.99719727 -1.28517231 -25.14453125 -3.63671875 C-16.3977799 -5.11840887 -7.55439364 -4.97169496 0 0 Z M-22 5 C-22.86625 5.144375 -23.7325 5.28875 -24.625 5.4375 C-27.4138369 6.098014 -28.05037354 6.97238848 -30 9 C-31.423125 9.5259375 -31.423125 9.5259375 -32.875 10.0625 C-37.52506005 12.94553723 -39.30881779 16.87969258 -41 22 C-41 26.89289736 -39.82888213 30.03956502 -37 34 C-35.06832602 36.34813734 -35.06832602 36.34813734 -31.625 36.375 C-28.00356515 36.31679049 -28.00356515 36.31679049 -25.6875 34.25 C-24.16283421 32.21711228 -22.99893847 30.33085643 -22 28 C-21.0340343 30.60810739 -20.97229086 31.89420147 -21.6875 34.625 C-23 37 -23 37 -25.0625 38 C-27.27223562 38.85947856 -27.27223562 38.85947856 -27.875 41.5 C-27.91625 42.325 -27.9575 43.15 -28 44 C-27.34 44.66 -26.68 45.32 -26 46 C-22.69316534 45.71016731 -22.69316534 45.71016731 -20 44 C-19.63021574 42.36197128 -19.30331217 40.71412956 -19 39.0625 C-18.1070615 34.21412301 -18.1070615 34.21412301 -17 32 C-13.68200999 31.70077487 -10.40671285 31.5843444 -7.078125 31.52148438 C-2.55653413 31.35109354 0.41549487 30.81498751 4 28 C6.53754236 24.99712036 7.8276958 21.82706016 8.625 18 C7.69685416 13.54489995 5.60487823 10.76055848 2 8 C-0.33057206 7.19496647 -2.52925624 6.76438554 -4.96484375 6.3984375 C-7.5382889 5.89461522 -8.9384359 4.56394518 -11 3 C-15.28440652 2.54421207 -18.10344307 3.30150083 -22 5 Z " fill="#70C5D6" transform="translate(48,9)"/>
<path d="M0 0 C2.31 0.33 4.62 0.66 7 1 C7.05399736 2.45792884 7.09279177 3.91642712 7.125 5.375 C7.14820312 6.18710937 7.17140625 6.99921875 7.1953125 7.8359375 C7 10 7 10 5 12 C1.875 11.625 1.875 11.625 -1 11 C-1 11.99 -1 12.98 -1 14 C-0.09507813 13.93039063 -0.09507813 13.93039063 0.828125 13.859375 C7.46340531 13.55971718 7.46340531 13.55971718 10.4375 16 C11.2109375 16.99 11.2109375 16.99 12 18 C12.66 18 13.32 18 14 18 C14.33 17.34 14.66 16.68 15 16 C14.360625 15.690625 13.72125 15.38125 13.0625 15.0625 C11 14 11 14 10 13 C10.08937803 11.47480724 10.24537146 9.95318071 10.4375 8.4375 C10.53933594 7.61121094 10.64117187 6.78492188 10.74609375 5.93359375 C10.82988281 5.29550781 10.91367187 4.65742188 11 4 C15.05886955 4.23416555 17.35661366 4.45312161 20.5 7.125 C22.5147975 10.98669521 22.25674722 12.86012679 21 17 C19.1875 19.9375 19.1875 19.9375 16 22 C11.96500498 22.40980418 8.0404422 22.28998389 4 22 C3.34 20.68 2.68 19.36 2 18 C-1.06754993 18 -3.14990979 18.00530306 -6 19 C-7.81068487 20.97795368 -9.13342919 22.96955048 -10.48046875 25.28515625 C-12 27 -12 27 -14.56640625 27.34765625 C-17 27 -17 27 -18.75 25.375 C-20.2693257 22.48828116 -20.86117881 20.26229807 -21 17 C-19.5625 15.4375 -19.5625 15.4375 -18 14 C-17.95936168 12.33382885 -17.957279 10.66611905 -18 9 C-17.34 8.34 -16.68 7.68 -16 7 C-12.70285207 7.32971479 -11.3773161 7.6226839 -9 10 C-9.375 13.625 -9.375 13.625 -10 17 C-7.75802612 15.22510401 -7.05673677 14.37824511 -6.625 11.5 C-7.05673677 8.62175489 -7.75802612 7.77489599 -10 6 C-9.34 4.68 -8.68 3.36 -8 2 C-5.03 2.495 -5.03 2.495 -2 3 C-1.34 2.01 -0.68 1.02 0 0 Z " fill="#73C6D6" transform="translate(31,15)"/>
<path d="M0 0 C0.33 0.99 0.66 1.98 1 3 C-1.15343189 6.23014784 -2.27059611 7.75686537 -6 9 C-8.31019336 9.12070269 -10.6241874 9.175363 -12.9375 9.1875 C-14.16339844 9.20167969 -15.38929687 9.21585938 -16.65234375 9.23046875 C-19.75643812 9.01676797 -21.41362551 8.63998182 -24 7 C-23.814375 6.38125 -23.62875 5.7625 -23.4375 5.125 C-22.76313824 2.95839822 -22.76313824 2.95839822 -24 1 C-21.525 1.495 -21.525 1.495 -19 2 C-18.67 3.32 -18.34 4.64 -18 6 C-9.54287559 6.09237886 -9.54287559 6.09237886 -2.25 2.4375 C-1.5075 1.633125 -0.765 0.82875 0 0 Z " fill="#E1F2F6" transform="translate(53,31)"/>
<path d="M0 0 C0.05399736 1.45792884 0.09279177 2.91642712 0.125 4.375 C0.14820313 5.18710937 0.17140625 5.99921875 0.1953125 6.8359375 C0 9 0 9 -2 11 C-4.625 10.625 -4.625 10.625 -7 10 C-7.6875 7.6875 -7.6875 7.6875 -8 5 C-6.28900222 2.5685821 -3.14057741 0 0 0 Z " fill="#D1ECF1" transform="translate(28,44)"/>
</svg>
