<svg xmlns="http://www.w3.org/2000/svg" xmlns:xlink="http://www.w3.org/1999/xlink" width="321" zoomAndPan="magnify" viewBox="0 0 240.75 238.499993" height="318" preserveAspectRatio="xMidYMid meet" version="1.2"><defs><clipPath id="ae423c138b"><path d="M 217 150 L 239.625 150 L 239.625 157 L 217 157 Z M 217 150 "/></clipPath><clipPath id="1c1d7b4bdd"><path d="M 43 28.277344 L 62 28.277344 L 62 67 L 43 67 Z M 43 28.277344 "/></clipPath><clipPath id="33af805d3b"><path d="M 0.128906 84 L 50 84 L 50 94 L 0.128906 94 Z M 0.128906 84 "/></clipPath></defs><g id="554b68dcc5"><path style=" stroke:none;fill-rule:nonzero;fill:#5e9c08;fill-opacity:1;" d="M 226.992188 106.742188 C 224.003906 105.496094 222.007812 104.5 218.84375 105.996094 C 213.789062 108.878906 209.410156 112.832031 204.929688 116.5 C 203.148438 117.890625 202.117188 118.78125 199.804688 120.277344 C 197.207031 121.988281 194.929688 123.375 194.714844 126.792969 C 194.324219 130.710938 195.570312 134.453125 196.316406 138.226562 C 196.707031 139.6875 196.566406 143.570312 196.246094 144.921875 L 196.136719 145.28125 L 196.101562 145.351562 C 195.816406 145.921875 195.496094 146.492188 195.105469 146.988281 C 194.535156 147.703125 193.859375 148.308594 193.148438 148.875 C 190.941406 150.335938 187.171875 151.121094 183.789062 151.867188 C 182.507812 152.152344 181.261719 152.507812 180.015625 152.9375 C 179.414062 153.1875 178.453125 153.257812 178.308594 154.039062 C 178.308594 155.324219 179.804688 154.859375 180.585938 154.753906 C 181.796875 154.503906 183.007812 154.253906 184.179688 153.898438 L 184.464844 153.792969 C 186.136719 153.578125 187.847656 153.398438 189.769531 152.902344 C 191.40625 152.472656 193.148438 152.082031 194.609375 151.121094 C 196.53125 149.695312 198.273438 147.773438 198.914062 145.386719 C 199.269531 143 199.484375 140.542969 199.019531 138.15625 C 198.558594 135.023438 197.527344 132.171875 197.417969 129.929688 C 197.3125 127.292969 197.171875 126.332031 198.132812 124.871094 C 198.414062 124.550781 198.734375 124.300781 199.089844 124.015625 C 200.230469 123.160156 201.476562 122.414062 202.652344 121.59375 C 204.714844 120.097656 206.742188 118.496094 208.699219 116.859375 C 211.332031 114.6875 213.894531 112.441406 216.566406 110.304688 C 218.378906 108.84375 219.269531 107.917969 220.800781 107.347656 C 222.507812 106.492188 224.289062 107.3125 226.527344 107.8125 C 228.949219 108.453125 231.441406 108.703125 233.929688 109.023438 C 231.617188 108.273438 229.234375 107.703125 226.992188 106.742188 Z M 226.992188 106.742188 "/><path style=" stroke:none;fill-rule:nonzero;fill:#5e9c08;fill-opacity:1;" d="M 196.851562 132.457031 L 196.851562 132.28125 C 196.886719 131.921875 196.851562 131.496094 196.742188 130.996094 C 196.492188 127.507812 196.03125 123.980469 194.394531 120.847656 C 193.503906 118.960938 192.1875 117.640625 191.691406 116.824219 C 191.085938 116.039062 191.050781 115.253906 190.976562 114.292969 C 190.835938 112.371094 191.296875 110.484375 191.832031 108.632812 C 190.480469 111.054688 189.339844 113.902344 189.910156 116.75 C 190.410156 118.140625 191.332031 119.316406 191.972656 120.667969 C 192.507812 121.703125 193.21875 123.765625 193.613281 125.691406 C 194.003906 127.507812 194.289062 129.324219 194.574219 131.140625 C 194.75 132.066406 194.679688 133.738281 196.101562 133.453125 C 196.566406 133.382812 196.777344 132.957031 196.8125 132.351562 Z M 196.851562 132.457031 "/><path style=" stroke:none;fill-rule:nonzero;fill:#5e9c08;fill-opacity:1;" d="M 225.390625 123.589844 C 223.609375 123.660156 222.152344 123.375 220.800781 122.554688 C 219.019531 121.453125 217.453125 120.027344 215.605469 119.03125 C 213.078125 117.675781 210.230469 116.785156 207.347656 117.214844 C 205.960938 117.285156 204.359375 117.996094 203.253906 118.566406 L 202.863281 118.746094 C 202.292969 119.03125 202.292969 119.921875 202.863281 120.242188 C 203.328125 120.492188 203.789062 120.242188 204.25 120.097656 C 207.492188 118.960938 209.769531 119.171875 213.328125 120.632812 L 214.820312 121.308594 C 216.351562 122.164062 217.808594 123.160156 219.375 123.980469 C 223.21875 126.1875 227.632812 124.160156 231.652344 123.589844 C 229.519531 123.484375 227.453125 123.625 225.390625 123.589844 Z M 225.390625 123.589844 "/><path style=" stroke:none;fill-rule:nonzero;fill:#5e9c08;fill-opacity:1;" d="M 229.304688 138.867188 C 227.773438 140.398438 226.636719 142.253906 225.390625 143.960938 C 223.71875 146.277344 221.761719 149.160156 220.230469 149.625 C 217.988281 150.015625 214.003906 149.554688 212.507812 148.875 C 204.359375 144.601562 202.257812 147.132812 194.964844 151.011719 C 192.613281 152.082031 190.550781 152.972656 187.382812 153.648438 C 185.675781 153.96875 184.785156 154.078125 182.617188 154.21875 C 181.617188 154.363281 180.585938 154.21875 179.625 154.503906 C 179.304688 154.683594 179.128906 155.109375 179.234375 155.464844 C 179.414062 156.140625 180.160156 156.179688 180.730469 156.25 C 181.582031 156.355469 182.472656 156.355469 183.328125 156.390625 C 184.253906 156.390625 185.140625 156.320312 186.03125 156.179688 C 187.027344 156.105469 187.988281 156.035156 188.949219 155.855469 C 192.117188 155.25 195.175781 154.078125 197.988281 152.472656 C 200.089844 151.296875 202.367188 150.015625 203.753906 149.589844 C 204.785156 149.304688 204.855469 149.375 206.386719 149.445312 C 209.234375 149.910156 210.371094 151.40625 213.539062 152.046875 C 216.171875 152.332031 219.019531 152.792969 221.546875 151.691406 C 223.253906 150.65625 224.289062 148.914062 225.320312 147.273438 C 226.847656 144.78125 227.988281 142.109375 229.589844 139.652344 C 230.585938 138.371094 232.046875 137.480469 233.539062 136.875 C 232.046875 137.230469 230.550781 137.871094 229.304688 138.867188 Z M 229.304688 138.867188 "/><path style=" stroke:none;fill-rule:nonzero;fill:#5e9c08;fill-opacity:1;" d="M 222.1875 144.996094 C 221.867188 141.398438 220.941406 138.335938 221.40625 134.453125 C 219.804688 138.371094 220.621094 142.5 220.410156 146.527344 L 220.300781 147.203125 C 220.089844 147.808594 219.875 148.414062 219.554688 148.984375 C 219.234375 149.589844 218.984375 150.160156 218.558594 150.621094 C 217.847656 151.191406 218.449219 152.296875 219.304688 151.761719 L 219.339844 151.726562 L 219.484375 151.617188 C 221.546875 150.125 222.402344 147.453125 222.1875 144.996094 Z M 222.1875 144.996094 "/><g clip-rule="nonzero" clip-path="url(#ae423c138b)"><path style=" stroke:none;fill-rule:nonzero;fill:#5e9c08;fill-opacity:1;" d="M 223.539062 154.113281 C 222.1875 153.96875 221.511719 153.542969 220.585938 152.6875 C 219.730469 151.976562 219.128906 151.335938 218.699219 150.585938 C 218.523438 150.265625 217.988281 150.335938 217.882812 150.691406 L 217.953125 151.050781 C 217.953125 151.15625 218.058594 151.371094 218.238281 151.726562 C 218.734375 152.6875 219.449219 153.507812 220.195312 154.289062 C 223.289062 157.316406 227.917969 155.644531 230.585938 155.429688 C 231.652344 155.289062 232.863281 155.039062 234.429688 155.109375 C 236.136719 155.214844 237.882812 155.75 239.410156 156.640625 C 234.644531 151.902344 228.273438 154.539062 223.539062 154.113281 Z M 223.539062 154.113281 "/></g><path style=" stroke:none;fill-rule:nonzero;fill:#5e9c08;fill-opacity:1;" d="M 209.554688 157.425781 C 208.449219 156.5 207.882812 155.535156 207.0625 154.289062 C 205.746094 152.367188 205.320312 151.050781 204.890625 148.519531 L 204.855469 148.308594 C 204.929688 148.769531 204.855469 148.234375 204.855469 148.023438 L 204.75 147.132812 C 204.570312 146.8125 204.144531 146.632812 203.789062 146.738281 C 203.433594 146.847656 203.253906 147.097656 203.183594 147.417969 L 203.148438 147.738281 C 203.042969 149.765625 203.46875 151.867188 204.429688 153.683594 C 205.53125 155.359375 206.742188 157.066406 208.378906 158.277344 C 210.445312 159.632812 212.933594 160.132812 215.175781 161.09375 C 213.398438 159.738281 211.191406 158.777344 209.554688 157.425781 Z M 209.554688 157.425781 "/><path style=" stroke:none;fill-rule:nonzero;fill:#5e9c08;fill-opacity:1;" d="M 223.929688 198.523438 C 220.976562 198.132812 216.886719 196.707031 215.390625 195.285156 C 213.328125 193.289062 211.9375 188.945312 209.339844 186.273438 C 206.351562 183.28125 204.609375 183.351562 203.929688 180.183594 C 202.652344 175.625 204.144531 168.714844 201.121094 163.515625 C 199.375 160.808594 196.386719 159.347656 193.433594 158.316406 C 191.261719 157.496094 189.019531 156.855469 186.777344 156.25 C 185.605469 155.679688 184.394531 155.214844 183.113281 155.003906 C 182.1875 154.894531 181.15625 154.324219 180.230469 154.789062 C 179.589844 155.144531 179.554688 156.035156 180.089844 156.5 C 180.375 156.785156 180.800781 156.855469 181.15625 157.03125 C 184.894531 158.386719 188.734375 159.453125 192.4375 160.84375 C 192.792969 160.984375 193.113281 161.09375 193.398438 161.199219 C 193.753906 161.414062 194.074219 161.625 194.429688 161.839844 L 193.96875 161.414062 C 194.820312 161.734375 195.425781 162.019531 196.636719 162.800781 C 197.8125 163.726562 198.34375 164.15625 198.84375 165.011719 C 199.519531 165.9375 200.265625 169.105469 200.300781 170.140625 C 200.585938 172.773438 200.410156 175.480469 200.800781 178.117188 C 201.121094 180.679688 201.691406 183.421875 203.71875 185.167969 C 205.070312 186.273438 205.605469 186.558594 206.53125 187.339844 C 207.527344 188.160156 208.734375 189.691406 208.878906 189.90625 C 210.621094 192.257812 211.832031 195.105469 214.214844 196.921875 C 215.996094 198.203125 218.167969 198.667969 220.265625 199.058594 C 221.726562 199.273438 223.253906 199.414062 224.75 199.273438 C 226.101562 199.058594 227.453125 198.597656 228.734375 198.097656 C 227.132812 198.382812 225.605469 198.703125 223.929688 198.523438 Z M 223.929688 198.523438 "/><path style=" stroke:none;fill-rule:nonzero;fill:#5e9c08;fill-opacity:1;" d="M 212.507812 180.003906 C 210.90625 178.222656 209.519531 176.230469 207.492188 174.910156 C 205.570312 173.734375 204.289062 171.882812 203.363281 169.496094 C 202.828125 168.324219 202.542969 167.074219 202.011719 165.9375 L 202.011719 165.902344 L 201.902344 165.6875 L 201.691406 165.472656 L 200.871094 165.6875 C 200.65625 166.148438 201.050781 166.683594 201.085938 167.183594 C 201.441406 169 201.796875 170.886719 202.613281 172.5625 C 204.039062 176.121094 206.8125 176.871094 208.949219 179.398438 C 209.980469 180.433594 210.871094 181.75 212.257812 182.25 C 216.351562 184.027344 220.835938 182.070312 224.820312 180.824219 C 220.480469 181.394531 214.644531 182.175781 212.507812 180.003906 Z M 212.507812 180.003906 "/><path style=" stroke:none;fill-rule:nonzero;fill:#5e9c08;fill-opacity:1;" d="M 206.742188 188.730469 C 205.746094 186.203125 205.390625 185.882812 204.644531 183.460938 C 204.179688 182.035156 203.894531 180.574219 203.46875 179.148438 C 203.292969 178.542969 202.402344 178.578125 202.222656 179.183594 L 202.222656 179.613281 C 202.4375 181.109375 202.652344 183.351562 203.148438 185.0625 C 203.574219 186.488281 204.179688 187.804688 204.820312 189.15625 C 205.070312 189.550781 205.710938 192.183594 205.851562 193.183594 C 206.171875 195.925781 205.996094 198.558594 205.425781 201.125 C 207.453125 197.136719 207.882812 192.363281 206.742188 188.730469 Z M 206.742188 188.730469 "/><path style=" stroke:none;fill-rule:nonzero;fill:#5e9c08;fill-opacity:1;" d="M 225.996094 203.796875 C 223.96875 202.191406 222.046875 200.449219 219.910156 198.953125 C 218.628906 198.0625 217.207031 197.421875 215.960938 196.496094 C 215.460938 196.175781 213.609375 194.429688 212.648438 193.433594 C 213.46875 194.855469 214.324219 196.246094 215.460938 197.421875 C 216.601562 198.558594 217.988281 199.414062 219.269531 200.414062 C 219.804688 200.839844 222.292969 202.761719 223.96875 203.722656 C 225.640625 204.792969 227.488281 205.539062 229.269531 206.429688 C 228.273438 205.46875 226.671875 204.367188 225.996094 203.796875 Z M 225.996094 203.796875 "/><path style=" stroke:none;fill-rule:nonzero;fill:#169cbb;fill-opacity:1;" d="M 100.480469 109.414062 C 105.640625 116.574219 127.066406 138.726562 132.082031 142.75 C 147.136719 154.824219 162.9375 158.777344 181.691406 154.289062 C 181.226562 152.722656 179.625 151.761719 177.988281 151.546875 C 176.386719 151.335938 174.75 151.691406 173.148438 151.976562 C 162.152344 153.792969 150.730469 150.480469 141.335938 144.496094 C 131.941406 138.511719 108.878906 114.082031 102.367188 105.035156 C 101.761719 106.421875 101.085938 107.847656 100.480469 109.414062 Z M 100.480469 109.414062 "/><path style=" stroke:none;fill-rule:nonzero;fill:#b9da56;fill-opacity:1;" d="M 110.871094 108.84375 C 109.34375 109.84375 107.742188 110.910156 106.816406 112.441406 C 105.640625 114.328125 105.605469 116.785156 106.246094 118.921875 C 106.886719 121.0625 108.132812 122.949219 109.449219 124.765625 C 110.980469 126.867188 112.867188 129.003906 115.425781 129.394531 C 118.273438 129.820312 121.015625 127.863281 122.582031 125.476562 C 123.148438 124.585938 123.648438 123.625 123.753906 122.59375 C 123.96875 120.847656 123.257812 119.136719 122.546875 117.535156 C 121.511719 115.21875 120.445312 112.90625 118.667969 111.089844 C 116.921875 109.308594 113.828125 106.921875 110.871094 108.84375 Z M 110.871094 108.84375 "/><path style=" stroke:none;fill-rule:nonzero;fill:#b9da56;fill-opacity:1;" d="M 126.636719 129.964844 C 124.539062 130.425781 122.722656 132.066406 122.117188 134.132812 C 121.585938 135.875 121.90625 137.800781 122.6875 139.4375 C 123.46875 141.078125 124.679688 142.5 126.03125 143.746094 C 127.917969 145.527344 130.160156 147.058594 132.722656 147.488281 C 135.285156 147.914062 138.203125 147.023438 139.554688 144.816406 C 140.230469 143.710938 140.480469 142.429688 140.515625 141.148438 C 140.585938 137.835938 139.128906 134.488281 136.566406 132.351562 C 134.003906 130.285156 130.339844 129.179688 126.636719 129.964844 Z M 126.636719 129.964844 "/><path style=" stroke:none;fill-rule:nonzero;fill:#b9da56;fill-opacity:1;" d="M 153.148438 144.496094 C 151.15625 144.105469 149.058594 143.890625 147.101562 144.496094 C 145.140625 145.066406 143.363281 146.5625 142.9375 148.554688 C 142.332031 151.261719 144.289062 153.898438 146.566406 155.5 C 149.910156 157.851562 154.324219 158.882812 158.203125 157.566406 C 159.019531 157.28125 159.839844 156.890625 160.480469 156.285156 C 162.472656 154.46875 162.472656 151.121094 160.941406 148.914062 C 159.414062 146.667969 156.816406 145.207031 153.148438 144.496094 Z M 153.148438 144.496094 "/><path style=" stroke:none;fill-rule:nonzero;fill:#b9da56;fill-opacity:1;" d="M 176.175781 147.417969 C 174.074219 147.808594 171.902344 148.199219 170.089844 149.304688 C 168.238281 150.40625 166.777344 152.367188 166.886719 154.503906 C 166.957031 156.355469 168.238281 158.03125 169.839844 158.992188 C 171.441406 159.953125 173.328125 160.308594 175.214844 160.414062 C 177.527344 160.59375 179.875 160.453125 182.046875 159.597656 C 184.179688 158.742188 186.101562 157.140625 186.957031 155.003906 C 187.8125 152.867188 187.417969 150.160156 185.746094 148.589844 C 184.535156 147.453125 182.828125 146.953125 181.15625 146.953125 C 179.484375 146.953125 177.8125 147.132812 176.175781 147.417969 Z M 176.175781 147.417969 "/><path style=" stroke:none;fill-rule:nonzero;fill:#5e9c08;fill-opacity:1;" d="M 133.71875 148.769531 C 132.757812 148.769531 131.832031 148.628906 130.980469 148.378906 C 129.199219 147.84375 127.492188 146.882812 126.03125 145.601562 C 123.257812 143.140625 121.546875 139.582031 121.335938 135.839844 C 121.300781 135.414062 121.65625 135.058594 122.082031 135.023438 C 122.546875 135.023438 122.867188 135.34375 122.902344 135.769531 C 123.078125 139.046875 124.609375 142.253906 127.066406 144.425781 C 128.34375 145.5625 129.839844 146.417969 131.441406 146.882812 C 133.222656 147.417969 135.785156 147.453125 137.207031 145.886719 C 137.492188 145.5625 137.988281 145.527344 138.308594 145.8125 C 138.628906 146.097656 138.664062 146.597656 138.382812 146.917969 C 137.171875 148.269531 135.425781 148.769531 133.71875 148.769531 Z M 133.71875 148.769531 "/><path style=" stroke:none;fill-rule:nonzero;fill:#5e9c08;fill-opacity:1;" d="M 154.859375 159.417969 C 150.339844 159.417969 145.855469 156.785156 143.683594 152.828125 C 143.46875 152.4375 143.613281 151.976562 144.003906 151.761719 C 144.394531 151.546875 144.859375 151.691406 145.070312 152.082031 C 146.992188 155.609375 151.015625 157.921875 155.035156 157.886719 C 157.417969 157.851562 160.265625 156.710938 160.90625 154.324219 C 161.015625 153.898438 161.441406 153.648438 161.867188 153.792969 C 162.296875 153.898438 162.542969 154.324219 162.402344 154.753906 C 161.511719 157.921875 157.953125 159.417969 155.035156 159.453125 Z M 154.859375 159.417969 "/><path style=" stroke:none;fill-rule:nonzero;fill:#5e9c08;fill-opacity:1;" d="M 177.597656 161.589844 L 177.492188 161.589844 C 174.574219 161.554688 171.511719 160.664062 168.378906 158.882812 C 167.988281 158.671875 167.882812 158.207031 168.097656 157.816406 C 168.308594 157.425781 168.773438 157.316406 169.164062 157.53125 C 172.046875 159.167969 174.855469 160.023438 177.492188 160.058594 L 177.597656 160.058594 C 180.585938 160.058594 183.433594 158.882812 185.140625 156.925781 C 185.425781 156.605469 185.925781 156.570312 186.246094 156.855469 C 186.566406 157.140625 186.601562 157.636719 186.316406 157.957031 C 184.289062 160.203125 181.015625 161.589844 177.597656 161.589844 Z M 177.597656 161.589844 "/><path style=" stroke:none;fill-rule:nonzero;fill:#8dcae5;fill-opacity:1;" d="M 94.824219 51.148438 C 91.941406 55.101562 89.023438 59.089844 86.140625 63.042969 C 83.542969 66.640625 80.480469 70.488281 76.140625 71.304688 C 72.332031 72.019531 68.488281 70.164062 65.464844 67.78125 C 62.4375 65.394531 59.878906 62.402344 56.710938 60.195312 C 57.527344 63.328125 59.558594 65.964844 61.050781 68.847656 C 62.546875 71.699219 63.578125 75.1875 62.226562 78.144531 C 60.730469 81.492188 56.816406 82.953125 53.1875 83.664062 C 49.59375 84.375 45.714844 84.734375 42.867188 87.046875 C 48.167969 89.113281 54.183594 91.925781 55.5 97.449219 C 57.277344 104.960938 49.058594 111.980469 50.304688 119.601562 C 54.574219 115.148438 59.984375 110.339844 66.035156 111.550781 C 71.40625 112.621094 74.574219 117.960938 78.273438 121.988281 C 81.371094 125.371094 85.394531 128.433594 86.210938 132.957031 C 85.285156 129.394531 84.359375 125.796875 84.359375 122.128906 C 84.359375 118.460938 85.429688 114.648438 88.027344 112.050781 C 90.515625 109.519531 94.324219 108.382812 97.777344 109.128906 C 101.230469 109.878906 104.253906 112.441406 105.5 115.753906 C 104.359375 112.90625 104.894531 109.449219 106.886719 107.097656 C 107.632812 106.210938 108.59375 105.390625 108.738281 104.25 C 108.949219 102.753906 107.667969 101.472656 106.390625 100.722656 C 105.070312 99.976562 103.578125 99.441406 102.652344 98.265625 C 101.15625 96.34375 101.832031 93.457031 103.363281 91.570312 C 104.894531 89.683594 107.101562 88.507812 109.023438 87.046875 C 110.945312 85.585938 112.757812 83.59375 112.867188 81.171875 C 109.09375 85.125 102.332031 85.125 97.882812 81.992188 C 93.433594 78.855469 91.191406 73.230469 91.015625 67.78125 C 90.980469 62.332031 92.6875 56.988281 94.824219 51.148438 Z M 94.824219 51.148438 "/><path style=" stroke:none;fill-rule:nonzero;fill:#169cbb;fill-opacity:1;" d="M 84.929688 88.367188 C 81.796875 85.835938 78.167969 83.164062 74.183594 83.699219 C 71.796875 84.019531 69.59375 85.585938 68.523438 87.722656 C 67.421875 89.898438 67.492188 92.566406 68.667969 94.707031 C 69.628906 96.449219 71.230469 97.734375 72.9375 98.765625 C 75.464844 100.296875 78.382812 101.367188 81.335938 101.117188 C 84.289062 100.867188 87.207031 99.085938 88.203125 96.308594 C 89.164062 93.53125 87.386719 90.359375 84.929688 88.367188 Z M 84.929688 88.367188 "/><g clip-rule="nonzero" clip-path="url(#1c1d7b4bdd)"><path style=" stroke:none;fill-rule:nonzero;fill:#8dcae5;fill-opacity:1;" d="M 61.621094 65.394531 C 58.738281 60.761719 55.285156 57.808594 52.796875 53.496094 C 47.992188 45.378906 51.800781 36.828125 43.828125 28.671875 C 47.742188 34.65625 47.28125 39.144531 47.707031 45.875 C 48.132812 52.003906 50.945312 56.453125 55.285156 60.585938 C 56.636719 61.972656 58.0625 63.257812 59.34375 64.71875 C 59.878906 65.285156 60.375 65.890625 60.910156 66.460938 L 61.40625 66.710938 L 61.976562 66.140625 Z M 61.621094 65.394531 "/></g><path style=" stroke:none;fill-rule:nonzero;fill:#8dcae5;fill-opacity:1;" d="M 65.144531 29.457031 C 65.355469 32.414062 64.894531 35.476562 63.933594 38.003906 C 62.4375 41.105469 60.125 43.738281 58.3125 46.625 C 56.175781 49.9375 54.753906 54.03125 55.359375 57.984375 C 55.464844 58.699219 55.640625 59.375 55.890625 60.050781 L 56.210938 60.761719 C 57.101562 61.476562 57.957031 60.550781 57.5625 59.589844 C 56.78125 56.453125 57.882812 52.785156 59.378906 49.828125 C 61.335938 46.160156 64.003906 42.777344 65.320312 38.789062 C 66.105469 35.726562 65.960938 32.484375 65.144531 29.457031 Z M 65.144531 29.457031 "/><path style=" stroke:none;fill-rule:nonzero;fill:#8dcae5;fill-opacity:1;" d="M 64.398438 46.304688 C 64.113281 46.339844 63.792969 46.375 63.472656 46.410156 C 62.6875 46.480469 61.90625 46.589844 61.121094 46.660156 C 60.800781 46.730469 60.339844 46.695312 60.125 46.980469 L 60.234375 47.800781 C 60.945312 48.15625 62.046875 47.90625 62.867188 47.941406 C 64.359375 47.871094 65.890625 47.871094 67.242188 47.230469 C 70.375 45.875 72.867188 43.488281 75.109375 41.03125 C 71.515625 43.3125 68.167969 45.769531 64.398438 46.304688 Z M 64.398438 46.304688 "/><path style=" stroke:none;fill-rule:nonzero;fill:#8dcae5;fill-opacity:1;" d="M 50.339844 46.765625 C 48.84375 42.242188 45.464844 37.96875 40.695312 36.757812 C 38.597656 36.261719 36.390625 36.582031 34.253906 36.792969 C 36.140625 37.078125 38.382812 37.222656 40.199219 37.933594 C 42.296875 38.824219 43.792969 40.070312 45.320312 41.851562 C 46.675781 43.527344 47.28125 44.167969 48.597656 46.589844 C 48.878906 47.160156 48.988281 47.441406 49.09375 47.585938 L 49.199219 47.90625 C 49.449219 48.371094 50.160156 48.371094 50.410156 47.90625 C 50.625 47.515625 50.410156 47.121094 50.339844 46.765625 Z M 50.339844 46.765625 "/><path style=" stroke:none;fill-rule:nonzero;fill:#8dcae5;fill-opacity:1;" d="M 46.035156 53.605469 C 43.757812 53.460938 41.441406 53.140625 39.164062 53.175781 C 41.371094 53.78125 43.578125 54.53125 45.855469 54.851562 C 47.316406 55.101562 48.808594 55.101562 50.304688 55.171875 C 50.910156 55.277344 51.480469 55.351562 52.082031 55.457031 L 52.511719 55.421875 C 54.21875 53.960938 46.78125 53.675781 46.035156 53.605469 Z M 46.035156 53.605469 "/><g clip-rule="nonzero" clip-path="url(#33af805d3b)"><path style=" stroke:none;fill-rule:nonzero;fill:#8dcae5;fill-opacity:1;" d="M 48.953125 84.375 C 48.097656 83.949219 47.136719 84.625 46.28125 84.839844 L 46.246094 84.839844 C 43.082031 85.800781 40.054688 87.117188 37.242188 88.828125 C 34.253906 90.003906 30.839844 90.894531 27.992188 91.035156 C 23.898438 90.964844 21.585938 90.609375 17.777344 89.71875 C 14.46875 88.757812 11.230469 87.546875 7.777344 87.367188 C 5.109375 86.976562 2.441406 87.511719 0.0546875 88.757812 C 1.410156 88.402344 2.796875 88.082031 4.183594 88.046875 C 5.75 88.046875 7.28125 88.507812 8.773438 88.828125 C 13.257812 89.933594 16.605469 92.320312 21.515625 93.101562 C 23.542969 93.457031 25.570312 93.816406 27.636719 93.777344 C 31.550781 93.566406 35.429688 92.605469 38.988281 91 C 42.121094 89.683594 46.175781 87.226562 48.488281 86.371094 L 48.632812 86.335938 L 48.667969 86.335938 L 48.84375 86.265625 C 49.628906 85.945312 49.699219 84.769531 48.953125 84.375 Z M 48.953125 84.375 "/></g><path style=" stroke:none;fill-rule:nonzero;fill:#8dcae5;fill-opacity:1;" d="M 41.621094 88.257812 C 41.335938 88.082031 40.980469 88.117188 40.660156 88.117188 C 39.984375 88.152344 39.273438 88.152344 38.597656 88.117188 C 36.78125 88.007812 36.460938 87.9375 34.753906 87.617188 C 33.472656 87.402344 33.542969 87.367188 32.546875 86.90625 C 28.453125 84.945312 26 81.277344 21.871094 78.640625 C 25.039062 81.847656 27.101562 86.121094 31.230469 88.542969 C 33.613281 90.289062 38.242188 90.21875 40.445312 89.898438 C 40.980469 89.863281 41.621094 89.898438 41.941406 89.398438 C 42.15625 89.007812 42.011719 88.472656 41.621094 88.257812 Z M 41.621094 88.257812 "/><path style=" stroke:none;fill-rule:nonzero;fill:#8dcae5;fill-opacity:1;" d="M 33.1875 88.507812 C 32.722656 87.226562 32.546875 85.835938 32.402344 84.875 C 32.296875 83.734375 32.082031 81.027344 31.621094 79.355469 C 31.265625 78.035156 30.695312 76.789062 29.984375 75.578125 C 30.484375 77.429688 30.695312 78.820312 30.804688 80.386719 C 30.980469 82.488281 30.980469 84.695312 31.726562 86.691406 C 32.011719 87.402344 32.296875 88.152344 32.6875 88.792969 L 33.1875 89.257812 C 33.542969 89.148438 33.292969 88.757812 33.1875 88.507812 Z M 33.1875 88.507812 "/><path style=" stroke:none;fill-rule:nonzero;fill:#8dcae5;fill-opacity:1;" d="M 39.484375 88.117188 L 39.238281 88.257812 L 38.738281 89.042969 C 37.492188 91.25 37.242188 95.382812 37.066406 96.414062 C 36.566406 98.660156 36.175781 100.9375 35.394531 103.109375 C 35.074219 104.070312 33.402344 107.3125 32.367188 109.199219 C 35.960938 105.460938 38.097656 101.972656 38.703125 96.734375 C 38.84375 95.027344 38.738281 93.316406 38.882812 91.640625 C 38.953125 90.714844 39.023438 90.21875 39.308594 89.21875 L 39.378906 88.972656 L 39.59375 88.472656 Z M 39.484375 88.117188 "/><path style=" stroke:none;fill-rule:nonzero;fill:#8dcae5;fill-opacity:1;" d="M 34.503906 98.730469 C 33.117188 99.550781 31.726562 100.402344 30.375 101.292969 C 33.152344 100.511719 37.421875 98.621094 37.742188 96.023438 C 36.996094 97.234375 35.785156 98.054688 34.503906 98.730469 Z M 34.503906 98.730469 "/><path style=" stroke:none;fill-rule:nonzero;fill:#8dcae5;fill-opacity:1;" d="M 104.894531 29.316406 C 104.714844 32.484375 103.363281 35.40625 101.871094 38.183594 C 99.734375 42.351562 97.386719 44.628906 94.46875 48.296875 C 91.976562 51.398438 91.050781 55.3125 89.914062 59.054688 C 88.988281 62.222656 88.132812 65.394531 87.351562 68.597656 C 89.519531 64.183594 91.476562 59.695312 93.433594 55.171875 C 95.535156 50.1875 97.5625 48.976562 100.445312 44.664062 C 101.941406 42.421875 103.078125 39.964844 103.898438 37.398438 C 104.789062 34.835938 105.25 32.058594 104.894531 29.316406 Z M 104.894531 29.316406 "/><path style=" stroke:none;fill-rule:nonzero;fill:#8dcae5;fill-opacity:1;" d="M 95.390625 49.902344 C 94.714844 44.738281 93.71875 38.324219 93.078125 30.242188 C 92.046875 36.902344 92.011719 43.773438 93.472656 50.363281 L 93.472656 50.398438 L 93.542969 50.683594 L 93.792969 51.113281 C 94.679688 51.894531 95.75 50.96875 95.390625 49.902344 Z M 95.390625 49.902344 "/><path style=" stroke:none;fill-rule:nonzero;fill:#8dcae5;fill-opacity:1;" d="M 105.890625 41.992188 C 105 42.171875 103.1875 42.277344 101.621094 42.597656 C 98.132812 43.527344 96.246094 46.910156 94.539062 49.828125 L 94.46875 49.9375 L 94.429688 49.972656 L 94.429688 50.007812 L 94.46875 49.972656 L 94.46875 49.9375 L 95.035156 49.367188 C 97.136719 47.265625 99.023438 44.914062 101.796875 44.308594 C 102.722656 44.167969 104.429688 44.09375 105.710938 43.882812 C 109.804688 43.132812 113.292969 40.605469 117.066406 39.039062 C 113.292969 39.609375 109.734375 41.351562 105.890625 41.992188 Z M 105.890625 41.992188 "/><path style=" stroke:none;fill-rule:nonzero;fill:#8dcae5;fill-opacity:1;" d="M 97.386719 52.285156 C 94.929688 52.644531 93.078125 54.246094 91.726562 56.277344 C 91.230469 56.953125 91.832031 56.3125 92.117188 56.097656 L 92.652344 55.671875 L 92.617188 55.707031 C 93.863281 54.636719 95.355469 53.925781 96.992188 53.640625 C 97.777344 53.496094 98.84375 53.496094 99.769531 53.425781 C 102.226562 53.320312 104.679688 53.070312 107.171875 53.070312 C 104.003906 52.214844 100.625 51.859375 97.386719 52.285156 Z M 97.386719 52.285156 "/><path style=" stroke:none;fill-rule:nonzero;fill:#8dcae5;fill-opacity:1;" d="M 130.765625 59.125 C 127.953125 61.582031 126.140625 65 123.398438 67.566406 C 120.585938 70.378906 117.527344 72.980469 115.25 76.292969 C 114.109375 77.824219 113.46875 79.355469 112.472656 80.816406 C 111.621094 81.953125 110.019531 83.308594 108.738281 84.375 C 107.667969 85.160156 105.5 86.550781 104.21875 87.761719 L 104.714844 87.476562 C 106.140625 86.621094 107.667969 86.050781 109.128906 85.300781 C 111.371094 84.019531 113.683594 82.597656 115.109375 80.351562 C 116.066406 78.855469 117.953125 76.648438 119.734375 74.867188 C 121.621094 73.085938 123.578125 71.375 125.285156 69.417969 C 126.53125 68.027344 127.667969 66.53125 128.664062 64.929688 C 129.734375 63.363281 130.625 61.652344 131.761719 60.441406 C 133.96875 58.019531 137.242188 56.882812 140.445312 56.0625 C 137.027344 56.203125 133.46875 56.882812 130.765625 59.125 Z M 130.765625 59.125 "/><path style=" stroke:none;fill-rule:nonzero;fill:#8dcae5;fill-opacity:1;" d="M 118.523438 59.019531 C 117.5625 60.480469 117.136719 62.1875 116.671875 63.863281 C 116.105469 66.175781 116.707031 68.5625 116.425781 70.914062 C 116.351562 71.269531 116.140625 72.660156 116.03125 73.015625 C 115.640625 74.796875 115 76.542969 114.394531 78.25 L 114.359375 78.359375 L 114.289062 78.570312 L 114.253906 78.640625 L 114.183594 78.964844 C 114.148438 79.78125 115.25 80.210938 115.785156 79.605469 L 115.996094 79.210938 C 117.027344 77.394531 117.8125 75.4375 118.417969 73.40625 C 118.773438 72.054688 119.058594 70.664062 119.058594 69.277344 C 119.058594 67.707031 118.703125 66.105469 118.914062 64.539062 L 119.164062 63.222656 C 119.554688 61.367188 119.699219 60.40625 120.660156 59.125 C 122.261719 56.847656 125.390625 54.496094 128.34375 53.390625 C 124.574219 54.03125 120.835938 55.957031 118.523438 59.019531 Z M 118.523438 59.019531 "/><path style=" stroke:none;fill-rule:nonzero;fill:#8dcae5;fill-opacity:1;" d="M 125.105469 93.957031 C 119.234375 91.679688 116.566406 85.90625 109.484375 86.511719 C 107.421875 86.65625 105.390625 86.871094 103.363281 87.296875 C 105.996094 87.402344 108.667969 87.511719 111.15625 88.007812 C 113.933594 88.578125 115.535156 90.074219 117.492188 91.679688 C 122.1875 95.632812 127.136719 96.378906 133.113281 96.199219 C 130.625 95.667969 126.921875 94.742188 125.105469 93.957031 Z M 125.105469 93.957031 "/><path style=" stroke:none;fill-rule:nonzero;fill:#8dcae5;fill-opacity:1;" d="M 120.445312 87.972656 C 118.878906 88.578125 117.066406 89.183594 115.320312 88.722656 C 114.964844 88.542969 114.574219 88.402344 114.21875 88.257812 L 113.898438 88.328125 C 113.542969 88.792969 114.253906 89.113281 114.609375 89.328125 C 115.535156 89.824219 116.566406 90.144531 117.597656 90.109375 C 119.554688 90.039062 121.476562 89.433594 123.007812 88.222656 C 125.355469 86.65625 127.171875 84.625 130.054688 83.414062 C 126.496094 83.808594 123.433594 86.476562 120.445312 87.972656 Z M 120.445312 87.972656 "/><path style=" stroke:none;fill-rule:nonzero;fill:#8dcae5;fill-opacity:1;" d="M 122.296875 96.058594 C 121.867188 95.347656 121.511719 94.632812 121.191406 93.851562 L 121.265625 94.027344 C 120.871094 93.246094 119.984375 89.96875 118.738281 91.074219 C 118.417969 91.5 118.773438 92.035156 119.09375 92.460938 C 119.554688 93.636719 119.910156 95.417969 120.730469 96.734375 C 121.621094 98.410156 122.902344 99.90625 124.503906 100.9375 C 126.316406 102.007812 128.273438 102.859375 130.230469 103.539062 C 126.921875 101.1875 124.109375 99.691406 122.296875 96.058594 Z M 122.296875 96.058594 "/><path style=" stroke:none;fill-rule:nonzero;fill:#8dcae5;fill-opacity:1;" d="M 89.273438 138.085938 C 87.597656 132.171875 85.214844 128.253906 83.398438 122.34375 C 83.292969 121.949219 83.1875 121.523438 83.113281 121.097656 L 83.078125 121.097656 L 83.078125 120.988281 C 82.9375 120.597656 82.472656 120.382812 82.082031 120.492188 C 81.441406 120.667969 81.40625 121.382812 81.511719 121.949219 C 81.65625 123.199219 81.941406 124.445312 82.296875 125.65625 C 83.613281 130.390625 85.464844 134.914062 86.957031 139.582031 C 88.273438 143.070312 89.234375 146.773438 88.703125 149.375 C 88.0625 153.792969 85.996094 157.851562 85.214844 162.269531 C 86.78125 158.066406 89.449219 154.183594 90.550781 149.765625 C 91.621094 145.847656 90.480469 141.824219 89.273438 138.085938 Z M 89.273438 138.085938 "/><path style=" stroke:none;fill-rule:nonzero;fill:#8dcae5;fill-opacity:1;" d="M 95.214844 139.972656 C 94.109375 139.652344 93.042969 138.867188 92.046875 138.085938 C 90.765625 137.160156 89.234375 135.664062 88.558594 134.453125 C 86.921875 131.496094 86.851562 130.355469 85.320312 127.542969 C 84.679688 126.792969 83.398438 127.4375 83.683594 128.398438 C 83.863281 128.96875 84.074219 129.5 84.289062 130.035156 C 84.824219 131.636719 85.429688 133.242188 86.175781 134.738281 C 87.207031 136.839844 89.058594 138.441406 91.085938 139.582031 C 94.964844 142.109375 97.171875 141.148438 101.230469 139.792969 C 99.199219 139.972656 97.066406 140.363281 95.214844 139.972656 Z M 95.214844 139.972656 "/><path style=" stroke:none;fill-rule:nonzero;fill:#8dcae5;fill-opacity:1;" d="M 86.316406 132.671875 C 86.140625 130.785156 85.925781 128.859375 85.320312 127.042969 C 85.214844 126.582031 85.074219 126.1875 84.609375 126.117188 C 84.253906 126.046875 83.898438 126.332031 83.863281 126.6875 C 84.253906 129.214844 84.324219 132.136719 84.148438 135.199219 C 83.933594 138.296875 83.96875 140.363281 83.222656 142.929688 C 81.761719 147.628906 80.054688 151.226562 78.3125 155.359375 C 81.195312 151.335938 84.039062 147.132812 85.640625 142.394531 C 86.53125 139.261719 86.53125 135.914062 86.316406 132.671875 Z M 86.316406 132.671875 "/><path style=" stroke:none;fill-rule:nonzero;fill:#8dcae5;fill-opacity:1;" d="M 55.109375 110.484375 C 54.183594 111.515625 53.363281 112.621094 52.652344 113.796875 C 51.621094 115.042969 50.589844 116.324219 49.769531 117.5 C 48.808594 119.03125 48.0625 120.703125 47.671875 122.484375 C 47.28125 124.695312 47.28125 126.972656 46.996094 129.214844 C 46.886719 129.859375 46.425781 133.453125 45.75 135.234375 C 45.109375 136.980469 44.039062 139.332031 42.617188 141.539062 C 40.695312 144.210938 37.777344 147.453125 35.320312 150.480469 C 38.453125 147.703125 41.835938 145.066406 44.539062 141.859375 C 46.070312 139.757812 47.457031 137.515625 48.382812 135.058594 C 49.199219 132.742188 49.59375 130.320312 49.878906 127.898438 C 50.234375 122.554688 50.375 120.703125 53.542969 116.324219 C 54.398438 115.113281 55.25 113.867188 56.070312 112.65625 C 56.390625 112.121094 56.851562 111.660156 56.996094 111.015625 C 57.207031 109.878906 55.75 109.664062 55.109375 110.484375 Z M 55.109375 110.484375 "/><path style=" stroke:none;fill-rule:nonzero;fill:#8dcae5;fill-opacity:1;" d="M 50.269531 118.460938 C 49.878906 118.355469 49.484375 118.566406 49.09375 118.675781 C 48.167969 118.886719 48.167969 118.886719 47.707031 118.921875 C 46.140625 118.996094 45.394531 118.816406 44.753906 118.496094 C 43.007812 117.675781 41.265625 116.894531 39.449219 116.253906 C 37.492188 115.648438 35.5 114.722656 33.4375 114.863281 C 29.523438 115.648438 25.679688 117.996094 23.683594 121.488281 C 25.5 119.421875 27.957031 118.175781 30.484375 117.390625 C 32.191406 116.929688 33.4375 116.609375 34.253906 116.859375 C 37.066406 117.675781 39.699219 118.960938 41.65625 119.707031 C 42.722656 120.097656 43.71875 120.632812 44.824219 120.917969 C 46.425781 121.203125 48.132812 121.0625 49.664062 120.457031 L 49.804688 120.382812 C 50.339844 120.207031 50.800781 119.957031 50.945312 119.527344 C 51.050781 119.101562 50.765625 118.601562 50.269531 118.460938 Z M 50.269531 118.460938 "/><path style=" stroke:none;fill-rule:nonzero;fill:#8dcae5;fill-opacity:1;" d="M 40.839844 116.644531 C 40.339844 116.539062 39.949219 117.070312 39.628906 117.390625 C 38.773438 118.316406 37.992188 119.316406 37.386719 120.417969 C 36.566406 121.738281 36.320312 123.304688 36.105469 124.835938 C 35.855469 126.511719 35.679688 128.183594 35.535156 129.894531 C 36.460938 127.507812 37.207031 124.585938 38.027344 122.378906 C 38.738281 120.917969 39.664062 119.527344 40.589844 118.210938 C 40.695312 118.070312 40.730469 117.960938 41.121094 117.640625 L 41.265625 117.390625 Z M 40.839844 116.644531 "/><path style=" stroke:none;fill-rule:nonzero;fill:#219ebb;fill-opacity:1;" d="M 84.289062 127.117188 L 84.074219 127.078125 C 80.304688 126.011719 77.953125 122.804688 75.675781 119.707031 C 73.863281 117.214844 71.976562 114.648438 69.378906 113.296875 C 66.601562 111.835938 63.007812 111.800781 59.519531 113.152344 C 56 114.542969 53.078125 117.070312 50.945312 119.171875 L 49.839844 119.136719 L 49.878906 118.035156 C 52.117188 115.859375 55.214844 113.191406 58.988281 111.695312 C 62.902344 110.164062 66.996094 110.234375 70.160156 111.90625 C 73.078125 113.4375 75.074219 116.144531 76.996094 118.78125 C 78.953125 121.453125 80.835938 124.015625 83.507812 125.191406 C 83.363281 121.203125 84.113281 117.605469 85.75 114.722656 C 87.882812 110.910156 91.621094 108.308594 95.5 107.953125 C 98.667969 107.667969 101.871094 109.023438 103.828125 111.300781 C 104.253906 110.164062 105.070312 109.023438 105.820312 107.988281 C 107.136719 106.136719 108.417969 104.429688 107.707031 102.824219 C 107.242188 101.757812 105.996094 101.152344 104.679688 100.546875 C 103.078125 99.796875 101.265625 98.90625 100.835938 96.984375 C 100.375 94.8125 102.011719 93.28125 103.46875 91.925781 C 104.183594 91.25 104.894531 90.574219 105.390625 89.863281 C 105.640625 89.503906 106.105469 89.398438 106.460938 89.613281 C 106.816406 89.863281 106.921875 90.324219 106.710938 90.679688 C 106.140625 91.570312 105.320312 92.320312 104.574219 93.066406 C 103.042969 94.492188 102.152344 95.453125 102.402344 96.664062 C 102.652344 97.875 103.898438 98.445312 105.355469 99.15625 C 106.816406 99.832031 108.453125 100.617188 109.164062 102.21875 C 110.230469 104.605469 108.558594 106.886719 107.101562 108.914062 C 105.785156 110.769531 104.894531 112.085938 105.109375 113.261719 L 105.464844 114.152344 C 105.570312 114.542969 105.390625 114.933594 105.035156 115.113281 C 104.679688 115.289062 104.253906 115.148438 104.039062 114.792969 C 103.828125 114.4375 103.683594 114.117188 103.613281 113.757812 C 102.261719 111.054688 98.949219 109.238281 95.675781 109.519531 C 92.296875 109.84375 89.023438 112.121094 87.136719 115.503906 C 85.5 118.425781 84.824219 122.164062 85.179688 126.296875 L 84.894531 126.972656 Z M 84.289062 127.117188 "/></g></svg>