<svg id="vector-layer" preserveAspectRatio="none" viewBox="0 0 256 256" width="256" height="256" xmlns="http://www.w3.org/2000/svg"><defs id="animation_styles">
    <style type="text/css">
      @keyframes brain1 {
        to   { stroke-dashoffset: 0; }
      }

      @keyframes circles {
        to   { rx: 4; ry: 4; }
      }

      .brain1{
        stroke-dasharray: 200; 
        stroke-dashoffset: 200; 
        animation: brain1 5s linear infinite;
      }

      .brain2{
        stroke-dasharray: 28; 
        stroke-dashoffset: 28; 
        animation: brain1 5s linear infinite;
      }

      .brain3{
        stroke-dasharray: 80; 
        stroke-dashoffset: 80; 
        animation: brain1 5s linear infinite;
      }

      .brain4{
        stroke-dasharray: 20; 
        stroke-dashoffset: 20; 
        animation: brain1 5s linear infinite;
      }

      .line1{
        stroke-dasharray: 5; 
        stroke-dashoffset: 130; 
        animation: brain1 5s linear infinite;
      }
      .circle1{
        animation: circles 1s linear infinite;
        animation-direction: alternate;
      }
      .circle2{
        animation: circles 1s linear infinite;
        animation-direction: alternate;
      }
    </style>
  </defs><g transform="matrix(4,0,0,4,0,0)"><g data-bx-workspace="master" xmlns="http://www.w3.org/2000/svg" enable-background="new 0 0 64 64"><ellipse style="fill: rgb(111, 196, 213); stroke-width: 0px;" cx="31.962" cy="32.038" rx="27" ry="27"></ellipse><path class="brain1" d="M 47.045 30.7 C 47.045 28 45.345 25.7 43.045 24.7 C 43.945 23.8 44.545 22.5 44.545 21.1 C 44.545 18.3 42.245 16 39.445 16 C 39.245 16 39.045 16 38.945 16 C 39.245 15.3 39.445 14.5 39.445 13.7 C 39.445 10.9 37.145 8.6 34.345 8.6 C 33.445 8.6 32.645 8.8 31.945 9.2 C 31.245 7.2 29.345 5.5 27.145 5.5 C 25.613 5.5 20.11 6.961 17.714 9.518 C 15.73 11.635 16.575 14.745 17.289 16.238 C 19.597 21.067 25.282 19.384 25.501 23.364 C 25.673 26.474 24.434 29.45 22.967 29.983 C 21.409 30.549 20.634 39.289 22.222 43.948 C 23.569 47.902 29.993 51.364 33.327 51.193 C 37.092 51 40.707 48.665 42.394 43.453 C 43.577 39.798 43.245 37.8 42.745 36.8 C 45.145 36 47.045 33.6 47.045 30.7 Z" stroke-linecap="round" stroke-linejoin="round" stroke-miterlimit="10" transform="matrix(0, -1, 1, 0, 3.225892, 60.302892)" style="fill: rgb(111, 196, 213); stroke: rgb(255, 255, 255); stroke-width: 3px;"></path><path class="line1" d="M 33.797 47.875 C 33.797 47.875 30.756 46.293 27.216 44.606 C 23.676 42.918 20.524 41.086 20.476 41.111" fill="none" stroke-linecap="round" stroke-linejoin="round" stroke-miterlimit="10" style="stroke: rgb(255, 255, 255); stroke-width: 3px;" transform="matrix(0, -1, 1, 0, -17.356374, 71.629375)"></path><path class="brain2" d="M 31.34 19.58 C 31.34 19.58 28.682 22.982 32.482 26.382 C 34.282 27.982 37.882 28.482 40.982 28.082" fill="none" stroke-linecap="round" stroke-linejoin="round" stroke-miterlimit="10" transform="matrix(0, -1, 1, 0, 11.944484, 58.739701)" style="stroke: rgb(255, 255, 255); stroke-width: 3px;"></path><path class="brain3" d="M 16.911 26.773 C 16.911 26.773 19.611 28.473 21.911 27.773 C 24.211 27.073 25.811 23.673 25.811 23.673" fill="none" stroke-linecap="round" stroke-linejoin="round" stroke-miterlimit="10" transform="matrix(0, -1, 1, 0, -4.446533, 47.168533)" style="stroke: rgb(255, 255, 255); stroke-width: 3px;"></path><path class="brain4" d="M 38.126 31.157 C 38.126 31.157 39.426 26.057 45.426 26.057" fill="none" stroke-linecap="round" stroke-linejoin="round" stroke-miterlimit="10" transform="matrix(0, -1, 1, 0, 13.169, 70.382998)" style="stroke: rgb(255, 255, 255); stroke-width: 3px;"></path><ellipse class="circle1" style="fill: rgb(111, 196, 213); stroke: rgb(255, 255, 255); stroke-width: 2px;" cx="-43.385" cy="-34.367" rx="3.146" ry="3.147" transform="matrix(0, -1, 1, 0, 65.390221, -7.271007)"></ellipse><ellipse class="circle2" style="fill: rgb(111, 196, 213); stroke: rgb(255, 255, 255); stroke-width: 2px;" cx="-43.385" cy="-34.367" rx="3.146" ry="3.147" transform="matrix(0, -1, 1, 0, 58.560478, 7.23259)"></ellipse></g></g></svg>
