<svg xmlns="http://www.w3.org/2000/svg" xmlns:xlink="http://www.w3.org/1999/xlink" width="324" zoomAndPan="magnify" viewBox="0 0 242.87999 242.999999" height="324" preserveAspectRatio="xMidYMid meet" version="1.2"><defs><clipPath id="b5fff34bb6"><path d="M 108.554688 235.925781 L 123.542969 235.925781 L 123.542969 238.441406 L 108.554688 238.441406 Z M 108.554688 235.925781 "/></clipPath><clipPath id="e8138a31e0"><path d="M 122 236 L 127 236 L 127 238.441406 L 122 238.441406 Z M 122 236 "/></clipPath><clipPath id="5a1efdae77"><path d="M 119.179688 234.023438 L 132.714844 234.023438 L 132.714844 238.441406 L 119.179688 238.441406 Z M 119.179688 234.023438 "/></clipPath><clipPath id="53bff52b7b"><path d="M 114.59375 236.820312 L 122.199219 236.820312 L 122.199219 238.441406 L 114.59375 238.441406 Z M 114.59375 236.820312 "/></clipPath><clipPath id="8d431f59da"><path d="M 148.707031 235.925781 L 163.695312 235.925781 L 163.695312 238.441406 L 148.707031 238.441406 Z M 148.707031 235.925781 "/></clipPath><clipPath id="1d0282326c"><path d="M 162 236 L 167 236 L 167 238.441406 L 162 238.441406 Z M 162 236 "/></clipPath><clipPath id="a34ec8e7a1"><path d="M 159.332031 234.023438 L 172.863281 234.023438 L 172.863281 238.441406 L 159.332031 238.441406 Z M 159.332031 234.023438 "/></clipPath><clipPath id="d4ed8ca2d2"><path d="M 154.746094 236.820312 L 162.351562 236.820312 L 162.351562 238.441406 L 154.746094 238.441406 Z M 154.746094 236.820312 "/></clipPath><clipPath id="b355dd0002"><path d="M 139 233 L 145 233 L 145 238.441406 L 139 238.441406 Z M 139 233 "/></clipPath><clipPath id="048854ab76"><path d="M 202 233 L 208 233 L 208 238.441406 L 202 238.441406 Z M 202 233 "/></clipPath><clipPath id="2c34e8da6a"><path d="M 161.34375 56.539062 L 235.160156 56.539062 L 235.160156 172.738281 L 161.34375 172.738281 Z M 161.34375 56.539062 "/></clipPath><clipPath id="47e8981ad3"><path d="M 166 0.808594 L 184 0.808594 L 184 16 L 166 16 Z M 166 0.808594 "/></clipPath><clipPath id="08c78e058c"><path d="M 13.324219 110 L 80 110 L 80 118 L 13.324219 118 Z M 13.324219 110 "/></clipPath><clipPath id="32927b17b8"><path d="M 79 116 L 99 116 L 99 238.441406 L 79 238.441406 Z M 79 116 "/></clipPath><clipPath id="33e9aa8604"><path d="M 13.324219 116 L 80 116 L 80 238.441406 L 13.324219 238.441406 Z M 13.324219 116 "/></clipPath></defs><g id="39af1c4990"><path style=" stroke:none;fill-rule:nonzero;fill:#f8a49e;fill-opacity:1;" d="M 162.613281 233.464844 L 170.707031 231.625 L 170.523438 226.234375 C 167.214844 224.421875 163.671875 223.847656 160.128906 223.867188 L 162.613281 233.464844 "/><path style=" stroke:none;fill-rule:nonzero;fill:#f68082;fill-opacity:1;" d="M 159.367188 220.941406 L 160.128906 223.867188 C 163.671875 223.847656 167.214844 224.421875 170.523438 226.234375 L 170.304688 219.867188 L 159.367188 220.941406 "/><path style=" stroke:none;fill-rule:nonzero;fill:#f0efef;fill-opacity:1;" d="M 61.160156 110.601562 L 87.082031 110.601562 L 87.082031 88.917969 L 61.160156 88.917969 L 61.160156 110.601562 "/><path style=" stroke:none;fill-rule:nonzero;fill:#432a4a;fill-opacity:1;" d="M 30.714844 89.238281 C 29.480469 89.238281 28.449219 88.226562 28.210938 86.78125 L 17.917969 24.101562 C 17.824219 23.546875 18.027344 22.925781 18.472656 22.402344 C 18.949219 21.835938 19.617188 21.5 20.257812 21.5 L 108.773438 21.441406 C 111.289062 21.441406 113.160156 22.96875 113.554688 25.332031 L 123.660156 86.386719 C 123.769531 87.058594 123.582031 87.738281 123.148438 88.25 C 122.726562 88.75 122.113281 89.035156 121.472656 89.035156 L 30.714844 89.238281 "/><path style=" stroke:none;fill-rule:nonzero;fill:#d8d1e7;fill-opacity:1;" d="M 108.78125 20.96875 C 108.777344 20.96875 108.777344 20.96875 108.773438 20.96875 L 20.257812 21.027344 C 18.664062 21.027344 17.203125 22.667969 17.453125 24.179688 L 27.746094 86.859375 C 28.007812 88.421875 29.15625 89.707031 30.714844 89.707031 L 121.472656 89.503906 C 123.136719 89.503906 124.398438 87.980469 124.121094 86.308594 L 114.015625 25.257812 C 113.589844 22.667969 111.511719 20.96875 108.78125 20.96875 Z M 108.78125 21.910156 C 111.046875 21.910156 112.738281 23.285156 113.089844 25.410156 L 123.195312 86.460938 C 123.285156 86.996094 123.136719 87.539062 122.789062 87.945312 C 122.453125 88.34375 121.984375 88.566406 121.46875 88.566406 L 30.714844 88.765625 C 29.546875 88.765625 28.839844 87.699219 28.675781 86.707031 L 18.378906 24.027344 C 18.3125 23.609375 18.480469 23.117188 18.828125 22.703125 C 19.21875 22.242188 19.753906 21.96875 20.257812 21.96875 L 108.773438 21.910156 L 108.78125 21.910156 "/><path style=" stroke:none;fill-rule:nonzero;fill:#f0efef;fill-opacity:1;" d="M 17.453125 24.179688 C 17.453125 24.179688 15.054688 39.035156 20.054688 63.972656 C 22.351562 75.402344 27.816406 87.140625 27.816406 87.140625 L 17.453125 24.179688 "/><path style=" stroke:none;fill-rule:nonzero;fill:#d8d1e7;fill-opacity:1;" d="M 40.078125 110.636719 C 40.078125 112.953125 56.417969 114.832031 76.574219 114.832031 C 96.730469 114.832031 113.070312 112.953125 113.070312 110.636719 C 113.070312 108.320312 96.730469 106.441406 76.574219 106.441406 C 56.417969 106.441406 40.078125 108.320312 40.078125 110.636719 "/><path style=" stroke:none;fill-rule:nonzero;fill:#d5cbea;fill-opacity:1;" d="M 101.171875 110.441406 L 73.796875 104.167969 C 71.730469 103.835938 69.777344 105.082031 69.605469 106.84375 L 69.242188 110.632812 L 101.171875 110.441406 "/><path style=" stroke:none;fill-rule:nonzero;fill:#d8d1e7;fill-opacity:1;" d="M 130.199219 103.109375 L 145.664062 108.796875 C 146.671875 109.167969 146.410156 110.679688 145.339844 110.679688 L 97.957031 110.695312 L 73.253906 104.070312 L 110.882812 103.714844 L 130.199219 103.109375 "/><path style=" stroke:none;fill-rule:nonzero;fill:#6acdca;fill-opacity:1;" d="M 173.792969 217.746094 C 172.609375 180.964844 166.511719 161.453125 166.511719 161.453125 L 190.617188 161.722656 C 212.179688 157.8125 207.820312 130.246094 207.820312 130.246094 C 207.820312 130.246094 180.753906 127.488281 145.398438 131.203125 C 136.589844 132.128906 138.316406 145.421875 139.898438 155.273438 C 142.664062 172.488281 156.347656 222.234375 156.347656 222.234375 L 169.628906 222.140625 C 171.988281 222.125 173.871094 220.136719 173.792969 217.746094 "/><path style=" stroke:none;fill-rule:nonzero;fill:#2e3135;fill-opacity:1;" d="M 176.203125 180.019531 C 179.1875 180.019531 181.625 177.582031 181.625 174.601562 L 181.625 173.175781 C 181.625 170.195312 179.1875 167.757812 176.203125 167.757812 C 173.222656 167.757812 170.785156 170.195312 170.785156 173.175781 L 170.785156 174.601562 C 170.785156 177.582031 173.222656 180.019531 176.203125 180.019531 "/><path style=" stroke:none;fill-rule:nonzero;fill:#2e3135;fill-opacity:1;" d="M 176.199219 227.8125 C 176.027344 227.8125 175.886719 227.671875 175.886719 227.5 L 175.886719 172.707031 C 175.886719 172.535156 176.027344 172.394531 176.199219 172.394531 C 176.371094 172.394531 176.511719 172.535156 176.511719 172.707031 L 176.511719 227.5 C 176.511719 227.671875 176.371094 227.8125 176.199219 227.8125 "/><path style=" stroke:none;fill-rule:nonzero;fill:#d8d1e7;fill-opacity:1;" d="M 220.324219 117.015625 L 31.269531 117.015625 L 31.269531 110.6875 L 220.324219 110.6875 L 220.324219 117.015625 "/><path style=" stroke:none;fill-rule:nonzero;fill:#8fdada;fill-opacity:1;" d="M 198.640625 135.640625 C 198.640625 135.640625 171.355469 134.476562 162.917969 130.511719 C 157.503906 127.96875 161.875 123.082031 160.308594 116.027344 L 208.078125 113.65625 C 207.296875 116.398438 208.40625 120.628906 208.523438 122.808594 C 208.683594 125.867188 201.269531 135.476562 198.640625 135.640625 "/><path style=" stroke:none;fill-rule:nonzero;fill:#8fdada;fill-opacity:1;" d="M 159.128906 111.308594 C 155.894531 96.414062 155.121094 80.074219 161.949219 66.160156 C 165.414062 59.105469 171.613281 54.425781 179.308594 53.15625 C 186.761719 51.925781 197.089844 52.320312 207.589844 59.394531 C 213.542969 63.40625 216.203125 71.351562 213.472656 76.886719 C 211.636719 80.617188 209.734375 85.601562 208.695312 91.648438 C 195.730469 104.527344 177.386719 109.527344 159.128906 111.308594 "/><path style=" stroke:none;fill-rule:nonzero;fill:#8fdada;fill-opacity:1;" d="M 208.699219 91.644531 C 207.507812 98.5625 207.453125 106.863281 209.925781 116.25 L 160.652344 117.59375 C 160.105469 115.535156 159.59375 113.4375 159.128906 111.308594 C 177.386719 109.523438 195.734375 104.527344 208.699219 91.644531 "/><path style=" stroke:none;fill-rule:nonzero;fill:#8fdada;fill-opacity:1;" d="M 148.175781 80.074219 L 164.464844 62.046875 L 174.746094 93.160156 L 162.328125 104.210938 C 152.832031 97.527344 148.902344 90.195312 148.175781 80.074219 "/><path style=" stroke:none;fill-rule:nonzero;fill:#f8a49e;fill-opacity:1;" d="M 118.832031 102.402344 C 118.890625 101.007812 118.046875 100.246094 119.535156 99.953125 C 119.535156 99.953125 129.519531 98.84375 136.65625 95.78125 C 138.277344 95.085938 140.539062 93.742188 141.558594 92.40625 L 148.648438 83.90625 C 150.035156 92.835938 157.324219 100.828125 160.699219 103.28125 L 158.015625 105.902344 C 154.765625 108.894531 150.894531 110.703125 146.304688 110.722656 L 120.425781 110.578125 C 118.59375 110.578125 118.183594 108.695312 118.121094 107.019531 L 118.832031 102.402344 "/><path style=" stroke:none;fill-rule:nonzero;fill:#f8a49e;fill-opacity:1;" d="M 122.144531 234.449219 L 130.476562 234.886719 L 131.851562 226.421875 C 129.03125 223.289062 124.921875 223.472656 121.832031 223.234375 L 122.144531 234.449219 "/><path style=" stroke:none;fill-rule:nonzero;fill:#f68082;fill-opacity:1;" d="M 121.675781 220.421875 L 121.832031 223.234375 C 124.710938 223.570312 127.632812 223.242188 131.84375 226.511719 L 132.710938 221.277344 L 121.675781 220.421875 "/><path style=" stroke:none;fill-rule:nonzero;fill:#6d4a79;fill-opacity:1;" d="M 198.835938 131.722656 C 188.238281 131.722656 184.402344 128.472656 184.210938 128.304688 C 184.144531 128.246094 184.140625 128.148438 184.195312 128.085938 C 184.253906 128.019531 184.351562 128.011719 184.417969 128.070312 C 184.472656 128.121094 190.265625 133 206.96875 130.851562 C 207.058594 130.839844 207.132812 130.898438 207.144531 130.988281 C 207.15625 131.070312 207.097656 131.148438 207.011719 131.160156 C 203.921875 131.558594 201.207031 131.722656 198.835938 131.722656 "/><path style=" stroke:none;fill-rule:nonzero;fill:#6acdca;fill-opacity:1;" d="M 130.175781 132.121094 L 153.492188 130.691406 L 171.699219 159.109375 L 140.214844 161.632812 L 116.992188 139.570312 C 120.191406 135.675781 125.515625 132.222656 130.175781 132.121094 "/><path style=" stroke:none;fill-rule:nonzero;fill:#6acdca;fill-opacity:1;" d="M 113.585938 150.78125 C 113.667969 144.972656 115.367188 140.78125 118.273438 138.054688 L 141.96875 160.746094 L 141.621094 161.726562 C 140.390625 190.527344 139.710938 204.832031 136.78125 217.878906 C 136.195312 220.476562 134.945312 222.734375 132.175781 222.652344 L 119.460938 222.273438 L 113.585938 150.78125 "/><path style=" stroke:none;fill-rule:nonzero;fill:#6d4a79;fill-opacity:1;" d="M 201.964844 131.632812 C 201.878906 131.632812 201.808594 131.5625 201.808594 131.480469 L 201.753906 129.433594 C 201.75 129.324219 201.707031 129.222656 201.625 129.144531 C 201.546875 129.074219 201.445312 129.039062 201.339844 129.042969 L 187.164062 129.824219 C 187.074219 129.832031 187.003906 129.761719 186.996094 129.675781 C 186.992188 129.589844 187.058594 129.519531 187.148438 129.511719 L 201.324219 128.730469 C 201.515625 128.71875 201.695312 128.785156 201.839844 128.914062 C 201.980469 129.050781 202.0625 129.230469 202.070312 129.425781 L 202.121094 131.472656 C 202.121094 131.558594 202.054688 131.628906 201.96875 131.632812 C 201.964844 131.632812 201.964844 131.632812 201.964844 131.632812 "/><path style=" stroke:none;fill-rule:nonzero;fill:#f68082;fill-opacity:1;" d="M 192.371094 23.09375 C 192.371094 23.09375 192.367188 23.09375 192.367188 23.09375 C 192.101562 23.085938 191.917969 23.066406 191.734375 23.050781 C 191.558594 23.039062 191.382812 23.023438 191.125 23.015625 C 191.070312 23.011719 191.003906 23.007812 190.9375 22.984375 C 190.765625 22.917969 190.785156 22.753906 190.824219 22.347656 C 190.867188 21.925781 190.941406 21.222656 190.929688 20.035156 C 190.929688 19.949219 190.996094 19.878906 191.085938 19.878906 C 191.179688 19.886719 191.242188 19.945312 191.242188 20.035156 C 191.253906 21.238281 191.179688 21.953125 191.136719 22.378906 C 191.125 22.507812 191.109375 22.628906 191.109375 22.699219 C 191.117188 22.699219 191.125 22.699219 191.132812 22.699219 C 191.398438 22.710938 191.582031 22.726562 191.765625 22.742188 C 191.941406 22.757812 192.117188 22.773438 192.375 22.777344 C 192.460938 22.78125 192.53125 22.855469 192.527344 22.941406 C 192.527344 23.027344 192.453125 23.09375 192.371094 23.09375 "/><path style=" stroke:none;fill-rule:nonzero;fill:#f0efef;fill-opacity:1;" d="M 192.578125 34.15625 C 192.597656 34.585938 192.300781 34.972656 191.875 35.042969 L 191.160156 35.164062 C 190.734375 35.234375 190.332031 34.964844 190.214844 34.550781 L 192.578125 34.15625 "/><path style=" stroke:none;fill-rule:nonzero;fill:#f68082;fill-opacity:1;" d="M 177.636719 44.4375 L 177.933594 35.980469 C 180.527344 39.960938 185.324219 34.558594 189.921875 34.871094 C 189.921875 35.097656 189.863281 50.75 189.882812 52.855469 C 189.042969 52.734375 187.824219 52.644531 186.984375 52.644531 C 184.640625 49.625 180.722656 49.640625 177.636719 44.4375 "/><path style=" stroke:none;fill-rule:nonzero;fill:#f8a49e;fill-opacity:1;" d="M 177.625 44.378906 C 181.425781 44.390625 185.183594 49.625 187.527344 52.644531 C 184.152344 52.652344 180.457031 52.664062 177.277344 53.703125 L 177.625 44.378906 "/><path style=" stroke:none;fill-rule:nonzero;fill:#f0efef;fill-opacity:1;" d="M 184.246094 28.582031 C 184.265625 28.621094 184.257812 28.59375 184.246094 28.570312 L 184.246094 28.582031 "/><path style=" stroke:none;fill-rule:nonzero;fill:#f8a49e;fill-opacity:1;" d="M 180.027344 34.578125 L 184.609375 35.015625 C 182.726562 39.636719 181.792969 43.128906 177.710938 43.421875 C 176.980469 43.328125 175.929688 43.128906 174.722656 41.84375 C 177.503906 40.414062 180.648438 37.804688 180.027344 34.578125 "/><path style=" stroke:none;fill-rule:nonzero;fill:#f8a49e;fill-opacity:1;" d="M 169.6875 17.507812 C 170.289062 18.558594 171.347656 17.703125 172.050781 17.460938 C 173.996094 16.78125 176.832031 15.746094 180.378906 16.347656 C 183.296875 16.839844 186.992188 18.804688 187.855469 19.605469 C 189.5625 21.183594 189.269531 31.582031 189.332031 32.082031 C 189.332031 32.082031 189.363281 33.941406 188.703125 35.582031 C 188.695312 35.597656 188.6875 35.613281 188.679688 35.628906 L 180.027344 34.578125 C 179.949219 34.164062 179.839844 33.757812 179.6875 33.363281 C 179.839844 33.757812 179.949219 34.164062 180.027344 34.578125 L 179.464844 34.511719 L 180.027344 34.578125 C 180.648438 37.804688 179.105469 41.644531 176.324219 43.074219 C 173.09375 41.722656 171.179688 37.878906 170.460938 30.953125 C 170.460938 30.917969 170.457031 30.886719 170.457031 30.851562 C 170.457031 30.851562 169.457031 17.097656 169.6875 17.507812 "/><path style=" stroke:none;fill-rule:nonzero;fill:#7a232b;fill-opacity:1;" d="M 197.351562 15.128906 C 198.5625 29.859375 190.691406 38.871094 189.761719 39.253906 C 186.855469 40.445312 183.832031 40.125 182.652344 39.0625 C 181.0625 37.644531 177.480469 31.210938 177.738281 29.6875 C 178.074219 27.71875 178.496094 26.8125 177.160156 25.347656 C 176.328125 24.433594 175.898438 25.308594 174.765625 24.832031 C 174.402344 24.679688 173.777344 25.074219 173.535156 24.757812 C 172.808594 23.800781 172.425781 19.242188 172.375 18.867188 C 172.144531 17.25 174.242188 17 175.28125 15.746094 C 176.285156 14.535156 177.980469 14.1875 179.542969 14.199219 C 181.101562 14.210938 182.671875 14.5 184.210938 14.25 C 185.75 14 187.332031 13.007812 187.640625 11.457031 C 187.777344 10.757812 187.644531 10.039062 187.675781 9.328125 C 187.707031 8.617188 187.972656 7.832031 188.609375 7.539062 C 191.339844 6.277344 197.058594 11.535156 197.351562 15.128906 "/><path style=" stroke:none;fill-rule:nonzero;fill:#f8a49e;fill-opacity:1;" d="M 174.621094 29.265625 C 172.898438 31.910156 174.921875 34.140625 176.785156 33.679688 C 178.644531 33.21875 180.082031 30.464844 179.988281 27.53125 C 179.898438 24.59375 177.773438 22.566406 175.140625 23.050781 C 173.257812 23.398438 176.21875 26.816406 174.621094 29.265625 "/><path style=" stroke:none;fill-rule:nonzero;fill:#f68082;fill-opacity:1;" d="M 174.363281 33.007812 C 174.328125 33.007812 174.296875 32.984375 174.289062 32.949219 C 174.195312 32.605469 174.109375 32.195312 174.148438 31.789062 C 174.195312 31.347656 174.390625 30.964844 174.683594 30.742188 C 174.976562 30.527344 175.367188 30.445312 175.882812 30.488281 C 176.007812 30.496094 176.136719 30.5 176.265625 30.5 C 176.523438 30.507812 176.785156 30.511719 177.039062 30.582031 C 177.300781 30.308594 179.054688 28.351562 177.832031 26.09375 C 177.808594 26.058594 177.824219 26.007812 177.863281 25.988281 C 177.898438 25.96875 177.945312 25.980469 177.96875 26.019531 C 179.339844 28.546875 177.140625 30.703125 177.117188 30.726562 C 177.097656 30.746094 177.066406 30.753906 177.039062 30.742188 C 176.792969 30.667969 176.535156 30.664062 176.261719 30.65625 C 176.128906 30.65625 176 30.652344 175.867188 30.640625 C 175.390625 30.605469 175.039062 30.675781 174.777344 30.867188 C 174.519531 31.066406 174.34375 31.40625 174.304688 31.804688 C 174.269531 32.1875 174.351562 32.578125 174.4375 32.910156 C 174.449219 32.949219 174.421875 32.992188 174.382812 33.003906 C 174.375 33.007812 174.367188 33.007812 174.363281 33.007812 "/><path style=" stroke:none;fill-rule:nonzero;fill:#f68082;fill-opacity:1;" d="M 174.695312 34.742188 C 174.648438 34.742188 174.617188 34.707031 174.617188 34.664062 C 174.617188 34.621094 174.648438 34.585938 174.695312 34.585938 C 177.449219 34.585938 178.921875 31.71875 178.9375 31.6875 C 178.957031 31.648438 179.003906 31.636719 179.042969 31.652344 C 179.082031 31.671875 179.097656 31.71875 179.078125 31.757812 C 179.0625 31.789062 177.546875 34.742188 174.695312 34.742188 "/><path style=" stroke:none;fill-rule:nonzero;fill:#51b4ad;fill-opacity:1;" d="M 162.277344 104.300781 C 162.261719 104.300781 162.242188 104.296875 162.222656 104.292969 C 162.113281 104.25 159.476562 103.25 156.925781 99.796875 C 156.871094 99.726562 156.886719 99.628906 156.957031 99.574219 C 157.027344 99.527344 157.125 99.539062 157.175781 99.609375 C 159.449219 102.683594 161.832031 103.789062 162.261719 103.972656 C 168.957031 99.8125 176.859375 90.335938 176.9375 90.242188 C 176.992188 90.175781 177.089844 90.164062 177.15625 90.21875 C 177.222656 90.273438 177.234375 90.375 177.175781 90.441406 C 177.097656 90.535156 169.113281 100.117188 162.359375 104.277344 C 162.335938 104.292969 162.308594 104.300781 162.277344 104.300781 "/><path style=" stroke:none;fill-rule:nonzero;fill:#51b4ad;fill-opacity:1;" d="M 139.78125 194.636719 C 139.777344 194.636719 139.773438 194.636719 139.773438 194.632812 C 139.6875 194.628906 139.621094 194.554688 139.625 194.46875 L 141.46875 162.308594 C 141.472656 162.226562 141.539062 162.160156 141.621094 162.160156 L 159.21875 161.988281 C 159.222656 161.988281 159.222656 161.988281 159.222656 161.988281 C 159.308594 161.988281 159.378906 162.058594 159.378906 162.144531 C 159.378906 162.230469 159.308594 162.300781 159.222656 162.304688 L 141.773438 162.472656 L 139.9375 194.488281 C 139.933594 194.570312 139.863281 194.636719 139.78125 194.636719 "/><path style=" stroke:none;fill-rule:nonzero;fill:#6acdca;fill-opacity:1;" d="M 118.273438 228.265625 C 118.890625 227.636719 119.785156 227.464844 120.636719 227.417969 C 121.425781 227.375 122.351562 227.496094 122.789062 228.234375 C 123.128906 228.804688 123.039062 229.574219 122.71875 230.136719 C 122.402344 230.699219 121.894531 231.09375 121.390625 231.449219 C 120.363281 232.175781 119.277344 232.804688 118.152344 233.332031 L 113.957031 233.355469 C 114.042969 232.757812 114.550781 232.429688 115.171875 231.910156 C 115.960938 231.246094 116.835938 230.492188 117.394531 229.585938 C 117.675781 229.136719 117.910156 228.636719 118.273438 228.265625 "/><path style=" stroke:none;fill-rule:nonzero;fill:#8fdada;fill-opacity:1;" d="M 109.265625 236.019531 L 118.753906 229.585938 C 119.191406 229.292969 119.703125 229.128906 120.226562 229.121094 L 127.761719 229.035156 C 126.847656 232.082031 124.78125 234.90625 123.382812 237.628906 L 109.65625 237.800781 C 108.835938 237.8125 108.535156 236.453125 109.265625 236.019531 "/><g clip-rule="nonzero" clip-path="url(#b5fff34bb6)"><path style=" stroke:none;fill-rule:nonzero;fill:#5e3d64;fill-opacity:1;" d="M 110.148438 238.445312 L 122.914062 238.335938 C 123.210938 238.332031 123.445312 238.066406 123.433594 237.742188 L 123.394531 236.566406 C 123.386719 236.242188 123.136719 235.976562 122.839844 235.980469 L 109.152344 236.09375 C 108.855469 236.097656 108.625 236.363281 108.632812 236.691406 L 108.640625 236.851562 C 108.667969 237.738281 109.34375 238.449219 110.148438 238.445312 "/></g><g clip-rule="nonzero" clip-path="url(#e8138a31e0)"><path style=" stroke:none;fill-rule:nonzero;fill:#5e3d64;fill-opacity:1;" d="M 126.101562 236.328125 L 122.164062 237.914062 L 123.386719 238.332031 L 126.671875 237.023438 L 126.101562 236.328125 "/></g><path style=" stroke:none;fill-rule:nonzero;fill:#5e3d64;fill-opacity:1;" d="M 114.527344 232.503906 C 114.460938 232.503906 114.398438 232.457031 114.378906 232.390625 C 114.355469 232.308594 114.402344 232.222656 114.484375 232.195312 C 115.804688 231.828125 116.480469 232.140625 116.507812 232.15625 C 116.585938 232.191406 116.617188 232.285156 116.582031 232.363281 C 116.542969 232.441406 116.449219 232.472656 116.371094 232.4375 C 116.367188 232.433594 115.761719 232.164062 114.570312 232.5 C 114.554688 232.503906 114.542969 232.503906 114.527344 232.503906 "/><path style=" stroke:none;fill-rule:nonzero;fill:#5e3d64;fill-opacity:1;" d="M 117.066406 231.640625 C 117.050781 231.640625 117.035156 231.640625 117.019531 231.632812 C 117.011719 231.632812 116.300781 231.40625 115.585938 231.570312 C 115.5 231.589844 115.417969 231.539062 115.398438 231.453125 C 115.378906 231.371094 115.429688 231.285156 115.515625 231.265625 C 116.316406 231.078125 117.085938 231.324219 117.117188 231.335938 C 117.199219 231.363281 117.242188 231.453125 117.21875 231.535156 C 117.195312 231.601562 117.132812 231.640625 117.066406 231.640625 "/><path style=" stroke:none;fill-rule:nonzero;fill:#5e3d64;fill-opacity:1;" d="M 117.988281 230.90625 C 117.96875 230.90625 117.949219 230.902344 117.933594 230.898438 C 117.925781 230.894531 117.164062 230.625 116.464844 230.847656 C 116.378906 230.875 116.292969 230.832031 116.265625 230.746094 C 116.238281 230.664062 116.285156 230.578125 116.367188 230.550781 C 117.171875 230.292969 118.003906 230.589844 118.039062 230.601562 C 118.121094 230.632812 118.164062 230.722656 118.132812 230.804688 C 118.109375 230.867188 118.050781 230.90625 117.988281 230.90625 "/><path style=" stroke:none;fill-rule:nonzero;fill:#5e3d64;fill-opacity:1;" d="M 118.808594 230.070312 C 118.789062 230.070312 118.769531 230.066406 118.753906 230.058594 C 118.742188 230.054688 117.765625 229.6875 117.152344 229.9375 C 117.070312 229.96875 116.980469 229.929688 116.945312 229.851562 C 116.914062 229.769531 116.953125 229.679688 117.035156 229.644531 C 117.765625 229.351562 118.820312 229.75 118.867188 229.769531 C 118.945312 229.800781 118.984375 229.890625 118.957031 229.96875 C 118.929688 230.03125 118.871094 230.070312 118.808594 230.070312 "/><path style=" stroke:none;fill-rule:nonzero;fill:#6acdca;fill-opacity:1;" d="M 130.554688 228.988281 C 131.1875 228.984375 131.753906 229.515625 131.925781 230.277344 L 132.488281 232.792969 C 133.117188 235.082031 132.019531 237.488281 130.339844 237.511719 L 123.183594 237.601562 C 124.066406 235.546875 124.832031 233.433594 125.480469 231.207031 C 125.863281 229.890625 126.9375 229.011719 128.152344 229.003906 L 130.554688 228.988281 "/><g clip-rule="nonzero" clip-path="url(#5a1efdae77)"><path style=" stroke:none;fill-rule:nonzero;fill:#5e3d64;fill-opacity:1;" d="M 132.675781 236.347656 L 132.652344 234.128906 L 126.167969 234.148438 C 124.695312 234.152344 124.421875 234.167969 119.199219 238.394531 L 131.566406 238.324219 C 132.25 238.316406 132.6875 237.40625 132.675781 236.347656 "/></g><g clip-rule="nonzero" clip-path="url(#53bff52b7b)"><path style=" stroke:none;fill-rule:nonzero;fill:#9f6fa2;fill-opacity:1;" d="M 122.128906 238.378906 L 114.644531 238.410156 C 114.644531 238.410156 119.207031 234.921875 122.128906 238.378906 "/></g><path style=" stroke:none;fill-rule:nonzero;fill:#6acdca;fill-opacity:1;" d="M 158.457031 228.265625 C 159.070312 227.632812 159.96875 227.460938 160.816406 227.414062 C 161.605469 227.371094 162.535156 227.492188 162.972656 228.234375 C 163.308594 228.800781 163.21875 229.570312 162.902344 230.132812 C 162.585938 230.695312 162.078125 231.089844 161.574219 231.449219 C 160.546875 232.171875 159.460938 232.800781 158.335938 233.328125 L 154.136719 233.351562 C 154.226562 232.753906 154.734375 232.425781 155.351562 231.90625 C 156.144531 231.242188 157.015625 230.488281 157.578125 229.582031 C 157.859375 229.132812 158.089844 228.636719 158.457031 228.265625 "/><path style=" stroke:none;fill-rule:nonzero;fill:#8fdada;fill-opacity:1;" d="M 149.449219 236.015625 L 158.9375 229.582031 C 159.371094 229.289062 159.882812 229.125 160.410156 229.117188 L 167.945312 229.03125 C 167.027344 232.078125 164.964844 234.902344 163.566406 237.628906 L 149.839844 237.796875 C 149.019531 237.808594 148.71875 236.453125 149.449219 236.015625 "/><g clip-rule="nonzero" clip-path="url(#8d431f59da)"><path style=" stroke:none;fill-rule:nonzero;fill:#5e3d64;fill-opacity:1;" d="M 150.332031 238.441406 L 163.097656 238.332031 C 163.394531 238.332031 163.625 238.0625 163.617188 237.738281 L 163.578125 236.566406 C 163.566406 236.238281 163.316406 235.976562 163.019531 235.976562 L 149.335938 236.089844 C 149.039062 236.09375 148.804688 236.359375 148.816406 236.6875 L 148.820312 236.847656 C 148.851562 237.734375 149.527344 238.445312 150.332031 238.441406 "/></g><g clip-rule="nonzero" clip-path="url(#1d0282326c)"><path style=" stroke:none;fill-rule:nonzero;fill:#5e3d64;fill-opacity:1;" d="M 166.285156 236.324219 L 162.347656 237.914062 L 163.570312 238.328125 L 166.851562 237.019531 L 166.285156 236.324219 "/></g><path style=" stroke:none;fill-rule:nonzero;fill:#5e3d64;fill-opacity:1;" d="M 154.710938 232.5 C 154.640625 232.5 154.578125 232.457031 154.558594 232.386719 C 154.535156 232.304688 154.585938 232.214844 154.667969 232.195312 C 155.988281 231.824219 156.660156 232.136719 156.6875 232.152344 C 156.765625 232.1875 156.800781 232.28125 156.761719 232.359375 C 156.726562 232.4375 156.632812 232.46875 156.554688 232.433594 C 156.542969 232.429688 155.941406 232.164062 154.753906 232.496094 C 154.738281 232.5 154.722656 232.5 154.710938 232.5 "/><path style=" stroke:none;fill-rule:nonzero;fill:#5e3d64;fill-opacity:1;" d="M 157.25 231.636719 C 157.234375 231.636719 157.21875 231.636719 157.203125 231.632812 C 157.195312 231.628906 156.480469 231.402344 155.765625 231.570312 C 155.683594 231.585938 155.597656 231.535156 155.578125 231.449219 C 155.558594 231.367188 155.613281 231.285156 155.695312 231.261719 C 156.496094 231.078125 157.265625 231.324219 157.296875 231.332031 C 157.382812 231.359375 157.425781 231.449219 157.398438 231.53125 C 157.375 231.597656 157.316406 231.636719 157.25 231.636719 "/><path style=" stroke:none;fill-rule:nonzero;fill:#5e3d64;fill-opacity:1;" d="M 158.167969 230.902344 C 158.152344 230.902344 158.132812 230.898438 158.117188 230.890625 C 158.109375 230.890625 157.34375 230.621094 156.644531 230.84375 C 156.5625 230.875 156.472656 230.828125 156.449219 230.746094 C 156.421875 230.664062 156.464844 230.574219 156.550781 230.546875 C 157.351562 230.289062 158.1875 230.585938 158.222656 230.597656 C 158.304688 230.628906 158.34375 230.71875 158.316406 230.800781 C 158.292969 230.863281 158.234375 230.902344 158.167969 230.902344 "/><path style=" stroke:none;fill-rule:nonzero;fill:#5e3d64;fill-opacity:1;" d="M 158.992188 230.066406 C 158.972656 230.066406 158.953125 230.0625 158.933594 230.054688 C 158.925781 230.054688 157.949219 229.683594 157.332031 229.933594 C 157.253906 229.964844 157.160156 229.925781 157.128906 229.847656 C 157.097656 229.765625 157.136719 229.675781 157.214844 229.644531 C 157.945312 229.347656 159.003906 229.75 159.046875 229.765625 C 159.128906 229.796875 159.167969 229.886719 159.136719 229.96875 C 159.113281 230.027344 159.054688 230.066406 158.992188 230.066406 "/><path style=" stroke:none;fill-rule:nonzero;fill:#6acdca;fill-opacity:1;" d="M 170.738281 228.984375 C 171.367188 228.980469 171.933594 229.511719 172.105469 230.273438 L 172.671875 232.789062 C 173.300781 235.078125 172.203125 237.484375 170.519531 237.507812 L 163.367188 237.601562 C 164.25 235.542969 165.015625 233.429688 165.660156 231.203125 C 166.042969 229.890625 167.121094 229.007812 168.332031 229 L 170.738281 228.984375 "/><g clip-rule="nonzero" clip-path="url(#a34ec8e7a1)"><path style=" stroke:none;fill-rule:nonzero;fill:#5e3d64;fill-opacity:1;" d="M 172.859375 236.34375 L 172.835938 234.125 L 166.351562 234.144531 C 164.878906 234.148438 164.605469 234.164062 159.378906 238.390625 L 171.648438 238.257812 C 172.332031 238.25 172.871094 237.402344 172.859375 236.34375 "/></g><g clip-rule="nonzero" clip-path="url(#d4ed8ca2d2)"><path style=" stroke:none;fill-rule:nonzero;fill:#9f6fa2;fill-opacity:1;" d="M 162.3125 238.375 L 154.824219 238.40625 C 154.824219 238.40625 159.386719 234.921875 162.3125 238.375 "/></g><path style=" stroke:none;fill-rule:nonzero;fill:#72afe3;fill-opacity:1;" d="M 148.179688 172.164062 L 188.621094 172.164062 C 191.546875 172.164062 193.941406 169.773438 193.941406 166.847656 C 193.941406 163.921875 191.546875 161.53125 188.621094 161.53125 L 148.179688 161.53125 C 145.253906 161.53125 142.859375 163.921875 142.859375 166.847656 C 142.859375 169.773438 145.253906 172.164062 148.179688 172.164062 "/><path style=" stroke:none;fill-rule:nonzero;fill:#2e3135;fill-opacity:1;" d="M 143.042969 236.386719 C 142.933594 236.386719 142.824219 236.324219 142.765625 236.21875 C 142.6875 236.0625 142.746094 235.875 142.898438 235.796875 C 161.257812 226.238281 177.339844 226.527344 187.597656 228.449219 C 198.726562 230.535156 205.605469 234.953125 205.675781 234.996094 C 205.820312 235.089844 205.859375 235.285156 205.765625 235.429688 C 205.671875 235.574219 205.476562 235.613281 205.335938 235.519531 C 205.265625 235.476562 198.46875 231.117188 187.457031 229.058594 C 177.300781 227.160156 161.375 226.882812 143.1875 236.351562 C 143.144531 236.375 143.09375 236.386719 143.042969 236.386719 "/><g clip-rule="nonzero" clip-path="url(#b355dd0002)"><path style=" stroke:none;fill-rule:nonzero;fill:#2e3135;fill-opacity:1;" d="M 139.476562 235.714844 C 139.476562 237.101562 140.582031 238.222656 141.945312 238.222656 C 143.308594 238.222656 144.417969 237.101562 144.417969 235.714844 C 144.417969 234.332031 143.308594 233.210938 141.945312 233.210938 C 140.582031 233.210938 139.476562 234.332031 139.476562 235.714844 "/></g><g clip-rule="nonzero" clip-path="url(#048854ab76)"><path style=" stroke:none;fill-rule:nonzero;fill:#2e3135;fill-opacity:1;" d="M 202.578125 235.742188 C 202.578125 237.125 203.683594 238.246094 205.050781 238.246094 C 206.410156 238.246094 207.519531 237.125 207.519531 235.742188 C 207.519531 234.355469 206.410156 233.234375 205.050781 233.234375 C 203.683594 233.234375 202.578125 234.355469 202.578125 235.742188 "/></g><path style=" stroke:none;fill-rule:nonzero;fill:#51b4ad;fill-opacity:1;" d="M 165.039062 61.582031 C 165.003906 61.582031 164.96875 61.570312 164.941406 61.546875 C 164.875 61.496094 164.863281 61.394531 164.917969 61.328125 C 173.871094 50.117188 184.902344 54.242188 185.011719 54.285156 C 185.09375 54.316406 185.132812 54.410156 185.101562 54.488281 C 185.070312 54.570312 184.980469 54.609375 184.898438 54.578125 C 184.789062 54.535156 173.96875 50.496094 165.160156 61.523438 C 165.128906 61.5625 165.085938 61.582031 165.039062 61.582031 "/><path style=" stroke:none;fill-rule:nonzero;fill:#72afe3;fill-opacity:1;" d="M 181.765625 85.632812 C 181.917969 81.222656 181.738281 76.804688 182.171875 72.417969 C 183.054688 63.53125 190.507812 56.800781 199.339844 56.800781 L 213.945312 56.628906 C 222.183594 57.519531 229.246094 64.660156 229.539062 75.667969 C 229.828125 86.398438 231.992188 106.015625 221.890625 135.761719 C 219.050781 144.121094 216.449219 151.582031 211.253906 158.6875 C 206.058594 165.792969 199.152344 171.914062 190.417969 172.191406 C 182.390625 172.441406 158.191406 172.472656 156.769531 170.949219 C 154.621094 168.65625 158.46875 162.097656 160.109375 159.410156 C 165.957031 149.839844 180.417969 124.910156 181.765625 85.632812 "/><g clip-rule="nonzero" clip-path="url(#2c34e8da6a)"><path style=" stroke:none;fill-rule:nonzero;fill:#569ddb;fill-opacity:1;" d="M 186.996094 85.675781 C 187.144531 81.25 186.96875 76.8125 187.402344 72.40625 C 188.285156 63.484375 195.738281 56.722656 204.570312 56.722656 L 219.175781 56.550781 C 227.414062 57.445312 234.476562 64.617188 234.769531 75.671875 C 235.058594 86.449219 237.222656 106.148438 227.121094 136.019531 C 224.28125 144.410156 221.679688 151.902344 216.484375 159.039062 C 211.289062 166.171875 204.382812 172.324219 195.648438 172.597656 C 187.621094 172.847656 163.425781 172.882812 162 171.351562 C 159.855469 169.050781 163.699219 162.460938 165.339844 159.765625 C 171.1875 150.15625 185.648438 125.121094 186.996094 85.675781 "/></g><path style=" stroke:none;fill-rule:nonzero;fill:#2e3135;fill-opacity:1;" d="M 148.925781 162.101562 C 148.796875 162.101562 148.675781 162.019531 148.632812 161.890625 L 138.40625 131.773438 C 138.402344 131.765625 138.402344 131.753906 138.398438 131.746094 C 137.902344 129.578125 138.40625 127.34375 139.78125 125.617188 C 141.128906 123.925781 143.128906 122.957031 145.269531 122.957031 L 177.65625 122.957031 C 177.828125 122.957031 177.96875 123.097656 177.96875 123.269531 C 177.96875 123.441406 177.828125 123.582031 177.65625 123.582031 L 145.269531 123.582031 C 143.320312 123.582031 141.5 124.464844 140.273438 126.007812 C 139.019531 127.582031 138.554688 129.617188 139.003906 131.589844 L 149.222656 161.691406 C 149.277344 161.855469 149.191406 162.03125 149.027344 162.085938 C 148.996094 162.097656 148.960938 162.101562 148.925781 162.101562 "/><path style=" stroke:none;fill-rule:nonzero;fill:#2e3135;fill-opacity:1;" d="M 176.875 174.0625 C 176.773438 174.0625 176.671875 174.011719 176.613281 173.917969 C 176.519531 173.769531 176.5625 173.578125 176.707031 173.484375 C 191.382812 164.175781 198.617188 150.742188 202.097656 141.113281 C 205.871094 130.675781 206.179688 122.347656 206.179688 122.261719 C 206.1875 122.089844 206.328125 121.949219 206.503906 121.960938 C 206.675781 121.96875 206.8125 122.109375 206.808594 122.285156 C 206.804688 122.367188 206.496094 130.796875 202.6875 141.324219 C 199.171875 151.046875 191.867188 164.609375 177.042969 174.015625 C 176.992188 174.046875 176.933594 174.0625 176.875 174.0625 "/><path style=" stroke:none;fill-rule:nonzero;fill:#7a232b;fill-opacity:1;" d="M 166.617188 14.203125 C 166.949219 13.753906 167.292969 14.238281 167.539062 13.734375 C 167.835938 13.121094 167.691406 12.703125 167.652344 12.019531 C 167.617188 11.410156 167.453125 9.652344 167.980469 9.359375 C 168.683594 8.972656 168.945312 9.042969 169.289062 8.3125 C 169.507812 7.847656 170.480469 7.328125 170.542969 6.816406 C 170.65625 5.898438 172.519531 4.890625 173.425781 4.820312 C 174.332031 4.75 174.925781 4.300781 175.832031 4.410156 C 176.730469 4.519531 177.511719 4.980469 178.101562 4.28125 C 178.425781 3.894531 178.464844 3.355469 178.8125 2.992188 C 179.308594 2.46875 180.433594 2.984375 181.148438 3.007812 C 181.824219 3.027344 182.816406 4.003906 183.464844 4.195312 C 183.828125 4.441406 184.199219 4.664062 184.59375 4.835938 C 186.683594 5.753906 189.128906 5.222656 191.25 6.054688 C 193.726562 7.019531 196.453125 10.484375 196.953125 13.28125 C 197.582031 16.792969 193.34375 17.871094 191.09375 16.265625 C 190.503906 15.84375 189.988281 15.300781 189.359375 14.949219 C 187.269531 13.78125 184.777344 15.054688 182.660156 16.164062 C 180.09375 17.511719 177.359375 18.652344 174.503906 18.75 C 171.800781 18.84375 168.953125 17.863281 167.191406 15.695312 C 167.191406 15.410156 166.449219 14.433594 166.617188 14.203125 "/><g clip-rule="nonzero" clip-path="url(#47e8981ad3)"><path style=" stroke:none;fill-rule:nonzero;fill:#963537;fill-opacity:1;" d="M 166.082031 13.199219 C 166.058594 12.421875 166.445312 11.59375 167.125 11.3125 C 166.855469 10.363281 166.585938 9.386719 166.675781 8.398438 C 166.765625 7.410156 167.304688 6.402344 168.191406 6.105469 C 168.46875 6.011719 168.769531 5.988281 169.027344 5.847656 C 169.78125 5.4375 169.835938 4.28125 170.441406 3.652344 C 171.582031 2.46875 173.734375 3.851562 175.007812 2.835938 C 175.476562 2.464844 175.714844 1.839844 176.148438 1.425781 C 176.574219 1.023438 177.160156 0.851562 177.726562 0.84375 C 179.953125 0.808594 181.554688 2.890625 183.464844 4.195312 C 182.816406 4.003906 182.144531 3.890625 181.46875 3.871094 C 180.757812 3.847656 179.972656 3.949219 179.476562 4.472656 C 179.128906 4.835938 178.976562 5.355469 178.652344 5.738281 C 178.0625 6.4375 177.035156 6.5625 176.132812 6.453125 C 175.230469 6.34375 174.339844 6.054688 173.433594 6.125 C 172.527344 6.195312 171.5625 6.777344 171.449219 7.691406 C 171.386719 8.203125 171.597656 8.757812 171.378906 9.222656 C 171.03125 9.953125 169.984375 9.871094 169.285156 10.257812 C 168.753906 10.550781 168.414062 11.167969 168.453125 11.78125 C 168.492188 12.460938 168.945312 13.164062 168.648438 13.777344 C 168.402344 14.285156 167.757812 14.449219 167.425781 14.898438 C 167.257812 15.128906 167.1875 15.410156 167.191406 15.695312 C 167.09375 15.574219 166.996094 15.453125 166.902344 15.324219 C 166.464844 14.703125 166.105469 13.976562 166.082031 13.199219 "/></g><g clip-rule="nonzero" clip-path="url(#08c78e058c)"><path style=" stroke:none;fill-rule:nonzero;fill:#f0efef;fill-opacity:1;" d="M 13.585938 117.007812 L 79.949219 117.007812 C 79.949219 113.460938 77.074219 110.585938 73.527344 110.585938 L 20.007812 110.585938 C 16.460938 110.585938 13.585938 113.460938 13.585938 117.007812 "/></g><path style=" stroke:none;fill-rule:nonzero;fill:#51b4ad;fill-opacity:1;" d="M 171.15625 137.34375 C 170.925781 137.339844 165.464844 137.277344 163.351562 134.488281 C 162.53125 133.40625 162.339844 132.027344 162.773438 130.445312 L 163.0625 130.578125 C 162.65625 132.0625 162.839844 133.296875 163.601562 134.300781 C 165.621094 136.964844 171.101562 137.027344 171.160156 137.027344 C 171.246094 137.027344 171.316406 137.097656 171.316406 137.1875 C 171.316406 137.273438 171.246094 137.34375 171.15625 137.34375 "/><path style=" stroke:none;fill-rule:nonzero;fill:#51b4ad;fill-opacity:1;" d="M 169.945312 140.292969 C 169.945312 140.292969 169.945312 140.292969 169.941406 140.292969 C 169.925781 140.292969 168.320312 140.242188 166.386719 139.742188 C 164.59375 139.277344 162.144531 138.324219 160.648438 136.417969 C 159.34375 134.757812 158.957031 132.644531 159.492188 130.140625 C 159.511719 130.054688 159.59375 130.003906 159.679688 130.019531 C 159.765625 130.039062 159.820312 130.121094 159.800781 130.207031 C 159.28125 132.613281 159.652344 134.640625 160.894531 136.226562 C 163.65625 139.753906 169.890625 139.980469 169.953125 139.980469 C 170.039062 139.984375 170.105469 140.054688 170.101562 140.144531 C 170.101562 140.226562 170.03125 140.292969 169.945312 140.292969 "/><path style=" stroke:none;fill-rule:nonzero;fill:#51b4ad;fill-opacity:1;" d="M 168.734375 136.851562 C 168.652344 136.851562 168.582031 136.785156 168.578125 136.703125 L 168.464844 134.605469 L 162.882812 133.277344 C 162.800781 133.257812 162.746094 133.171875 162.765625 133.089844 C 162.785156 133.003906 162.871094 132.953125 162.957031 132.972656 L 168.648438 134.328125 C 168.71875 134.34375 168.765625 134.402344 168.769531 134.46875 L 168.890625 136.683594 C 168.894531 136.769531 168.828125 136.84375 168.742188 136.851562 C 168.742188 136.851562 168.738281 136.851562 168.734375 136.851562 "/><path style=" stroke:none;fill-rule:nonzero;fill:#f0efef;fill-opacity:1;" d="M 94.523438 110.597656 C 94.722656 106.285156 99.679688 102.835938 105.773438 102.835938 C 111.867188 102.835938 116.824219 106.285156 117.023438 110.597656 L 94.523438 110.597656 "/><path style=" stroke:none;fill-rule:nonzero;fill:#f8a49e;fill-opacity:1;" d="M 120.539062 110.566406 C 120.539062 110.566406 116.621094 111.175781 113.804688 109.648438 C 112.585938 108.980469 108.699219 107.46875 108.699219 107.46875 L 102.808594 99.773438 C 103.960938 98.003906 106.21875 97.167969 108.339844 97.726562 L 113.910156 99.191406 C 115.40625 99.582031 116.953125 99.75 118.496094 99.683594 L 121.746094 99.546875 L 120.539062 110.566406 "/><path style=" stroke:none;fill-rule:nonzero;fill:#f8a49e;fill-opacity:1;" d="M 105.652344 103.925781 L 103.695312 100.785156 L 102.910156 101.109375 L 94.613281 105.8125 C 94.164062 106.066406 94.085938 106.648438 94.453125 107.003906 L 94.828125 107.363281 C 95.386719 107.898438 96.496094 108.117188 97.214844 107.792969 L 105.652344 103.925781 "/><path style=" stroke:none;fill-rule:nonzero;fill:#f8a49e;fill-opacity:1;" d="M 105.425781 103.640625 L 99.367188 108.277344 C 99.09375 108.488281 99.066406 108.871094 99.3125 109.113281 C 99.867188 109.664062 100.839844 109.828125 101.539062 109.449219 L 107.269531 106.222656 L 105.425781 103.640625 "/><path style=" stroke:none;fill-rule:nonzero;fill:#f8a49e;fill-opacity:1;" d="M 103.53125 101.554688 L 103.789062 102.015625 L 103.789062 102.011719 Z M 103.53125 101.554688 "/><path style=" stroke:none;fill-rule:nonzero;fill:#f8a49e;fill-opacity:1;" d="M 94.273438 102.332031 C 93.644531 102.632812 93.53125 103.425781 94.046875 103.875 L 94.097656 103.914062 C 94.789062 104.511719 95.78125 104.675781 96.648438 104.335938 L 103.789062 102.015625 L 103.53125 101.554688 L 103.789062 102.011719 L 103.789062 102.015625 L 107.558594 108.738281 C 107.558594 108.738281 108.417969 108.132812 109.292969 107.425781 L 105.175781 97.929688 L 94.273438 102.332031 "/><path style=" stroke:none;fill-rule:nonzero;fill:#f8a49e;fill-opacity:1;" d="M 107.160156 106.140625 L 103.84375 108.820312 C 103.414062 109.183594 103.5625 109.890625 104.058594 110.171875 C 104.535156 110.441406 105.136719 110.414062 105.582031 110.105469 L 109.640625 107.3125 L 109.429688 106.78125 L 107.160156 106.140625 "/><path style=" stroke:none;fill-rule:nonzero;fill:#2e3135;fill-opacity:1;" d="M 201.089844 117.992188 C 200.242188 117.992188 199.550781 118.683594 199.550781 119.53125 L 199.550781 120.496094 C 199.550781 121.34375 200.242188 122.035156 201.089844 122.035156 L 212.332031 122.035156 C 213.183594 122.035156 213.875 121.34375 213.875 120.496094 L 213.875 119.53125 C 213.875 118.683594 213.183594 117.992188 212.332031 117.992188 Z M 212.332031 122.660156 L 201.089844 122.660156 C 199.894531 122.660156 198.921875 121.691406 198.921875 120.496094 L 198.921875 119.53125 C 198.921875 118.335938 199.894531 117.363281 201.089844 117.363281 L 212.332031 117.363281 C 213.527344 117.363281 214.5 118.335938 214.5 119.53125 L 214.5 120.496094 C 214.5 121.691406 213.527344 122.660156 212.332031 122.660156 "/><g clip-rule="nonzero" clip-path="url(#32927b17b8)"><path style=" stroke:none;fill-rule:nonzero;fill:#d8d1e7;fill-opacity:1;" d="M 98.96875 238.050781 L 79.925781 238.050781 L 79.925781 116.902344 L 98.96875 116.902344 L 98.96875 238.050781 "/></g><g clip-rule="nonzero" clip-path="url(#33e9aa8604)"><path style=" stroke:none;fill-rule:nonzero;fill:#f0efef;fill-opacity:1;" d="M 79.941406 238.035156 L 13.375 238.035156 L 13.375 116.972656 L 79.941406 116.972656 L 79.941406 238.035156 "/></g><path style=" stroke:none;fill-rule:nonzero;fill:#ad5eb5;fill-opacity:1;" d="M 78.0625 80.007812 C 78.03125 80.007812 78.003906 80 77.972656 79.992188 C 75.992188 79.390625 74.277344 77.628906 72.875 74.753906 C 71.847656 72.640625 71.390625 70.734375 71.371094 70.652344 C 71.332031 70.484375 71.433594 70.316406 71.601562 70.277344 C 71.769531 70.238281 71.941406 70.339844 71.980469 70.511719 C 71.996094 70.585938 73.816406 78.074219 78.15625 79.394531 C 78.320312 79.445312 78.414062 79.621094 78.363281 79.785156 C 78.320312 79.917969 78.195312 80.007812 78.0625 80.007812 "/><path style=" stroke:none;fill-rule:nonzero;fill:#ad5eb5;fill-opacity:1;" d="M 82.246094 79.464844 C 82.191406 79.464844 82.132812 79.453125 82.082031 79.421875 C 79.660156 77.945312 80.234375 72.332031 80.261719 72.09375 C 80.28125 71.921875 80.4375 71.796875 80.605469 71.816406 C 80.777344 71.832031 80.902344 71.988281 80.882812 72.160156 C 80.878906 72.214844 80.324219 77.617188 82.410156 78.886719 C 82.558594 78.976562 82.601562 79.167969 82.511719 79.316406 C 82.453125 79.414062 82.351562 79.464844 82.246094 79.464844 "/><path style=" stroke:none;fill-rule:nonzero;fill:#ad5eb5;fill-opacity:1;" d="M 63.726562 70.949219 Z M 61.058594 33.730469 C 59.933594 33.730469 58.847656 34.15625 57.703125 34.601562 C 57.15625 34.816406 56.589844 35.039062 56.015625 35.207031 C 55.011719 35.507812 53.957031 35.652344 52.941406 35.792969 C 51.777344 35.949219 50.574219 36.117188 49.472656 36.515625 C 47.757812 37.140625 46.257812 38.378906 45.355469 39.917969 C 45.152344 40.257812 44.972656 40.628906 44.800781 40.984375 C 44.453125 41.699219 44.09375 42.433594 43.53125 43.050781 C 42.972656 43.667969 42.257812 44.109375 41.570312 44.539062 C 41.207031 44.761719 40.832031 44.996094 40.492188 45.246094 C 37.535156 47.4375 36.714844 52.007812 38.742188 55.027344 C 38.816406 55.136719 38.890625 55.242188 38.96875 55.351562 C 39.335938 55.871094 39.714844 56.410156 39.789062 57.074219 C 39.835938 57.488281 39.753906 57.882812 39.671875 58.261719 C 39.644531 58.398438 39.613281 58.53125 39.59375 58.667969 C 39.300781 60.460938 40.371094 62.386719 42.078125 63.152344 C 42.589844 63.382812 43.191406 63.539062 43.773438 63.691406 C 45.074219 64.03125 46.414062 64.386719 47.046875 65.578125 C 47.175781 65.824219 47.355469 66.296875 47.566406 66.847656 C 47.890625 67.703125 48.382812 68.996094 48.671875 69.273438 C 48.894531 69.488281 49.101562 69.699219 49.300781 69.898438 C 51.285156 71.90625 52.480469 73.117188 63.648438 70.644531 C 64.003906 70.539062 69.457031 68.996094 73.882812 70.71875 C 78.953125 72.691406 84.75 70.996094 85.683594 70.695312 C 85.867188 70.292969 86.144531 70.011719 86.511719 69.859375 C 87.042969 69.636719 87.609375 69.75 88.109375 69.855469 C 88.203125 69.875 88.296875 69.894531 88.390625 69.910156 C 89.585938 70.125 90.628906 69.9375 91.480469 69.339844 C 92.832031 68.402344 93.773438 66.453125 94.289062 63.554688 C 94.667969 61.40625 94.21875 59.390625 93.054688 58.023438 C 92.867188 57.800781 92.664062 57.597656 92.449219 57.378906 C 92.097656 57.03125 91.738281 56.671875 91.457031 56.238281 C 90.773438 55.175781 90.714844 53.925781 90.65625 52.71875 C 90.632812 52.1875 90.605469 51.636719 90.527344 51.117188 C 90.21875 49.144531 88.996094 47.320312 87.257812 46.234375 C 86.945312 46.042969 86.605469 45.863281 86.277344 45.691406 C 85.621094 45.347656 84.941406 44.988281 84.386719 44.460938 C 83.640625 43.757812 83.210938 42.839844 82.792969 41.953125 C 82.386719 41.089844 82.003906 40.277344 81.359375 39.652344 C 80.457031 38.785156 79.214844 38.4375 77.898438 38.070312 C 77.035156 37.824219 76.140625 37.574219 75.332031 37.164062 C 74.675781 36.824219 74.070312 36.378906 73.488281 35.945312 C 72.484375 35.203125 71.539062 34.5 70.382812 34.355469 C 69.613281 34.257812 68.839844 34.425781 68.027344 34.601562 C 67.257812 34.769531 66.460938 34.941406 65.648438 34.878906 C 64.871094 34.820312 64.144531 34.554688 63.441406 34.292969 C 62.792969 34.054688 62.179688 33.828125 61.53125 33.753906 C 61.375 33.738281 61.214844 33.730469 61.058594 33.730469 Z M 54.332031 72.65625 C 51.144531 72.65625 50.15625 71.65625 48.855469 70.339844 C 48.660156 70.140625 48.457031 69.9375 48.238281 69.722656 C 47.875 69.378906 47.488281 68.40625 46.980469 67.070312 C 46.789062 66.5625 46.605469 66.082031 46.492188 65.871094 C 45.988281 64.921875 44.835938 64.617188 43.617188 64.296875 C 43.007812 64.140625 42.382812 63.976562 41.820312 63.722656 C 39.863281 62.847656 38.640625 60.632812 38.976562 58.570312 C 39 58.421875 39.027344 58.277344 39.058594 58.132812 C 39.132812 57.785156 39.203125 57.457031 39.167969 57.144531 C 39.109375 56.640625 38.792969 56.1875 38.457031 55.710938 C 38.378906 55.601562 38.300781 55.488281 38.222656 55.378906 C 35.980469 52.035156 36.847656 47.164062 40.121094 44.742188 C 40.480469 44.476562 40.867188 44.238281 41.238281 44.007812 C 41.921875 43.582031 42.566406 43.183594 43.070312 42.628906 C 43.566406 42.078125 43.894531 41.414062 44.238281 40.710938 C 44.414062 40.34375 44.601562 39.964844 44.8125 39.601562 C 45.789062 37.9375 47.410156 36.601562 49.257812 35.929688 C 50.421875 35.503906 51.660156 35.335938 52.855469 35.171875 C 53.847656 35.035156 54.878906 34.894531 55.835938 34.609375 C 56.382812 34.445312 56.941406 34.230469 57.476562 34.019531 C 58.792969 33.503906 60.152344 32.972656 61.601562 33.132812 C 62.324219 33.214844 63.003906 33.464844 63.660156 33.707031 C 64.351562 33.960938 65.003906 34.203125 65.695312 34.253906 C 66.417969 34.308594 67.132812 34.15625 67.894531 33.992188 C 68.722656 33.808594 69.582031 33.625 70.460938 33.734375 C 71.78125 33.898438 72.835938 34.683594 73.859375 35.441406 C 74.425781 35.859375 75.007812 36.292969 75.617188 36.605469 C 76.367188 36.988281 77.234375 37.230469 78.070312 37.464844 C 79.402344 37.835938 80.78125 38.222656 81.796875 39.203125 C 82.523438 39.90625 82.949219 40.8125 83.359375 41.6875 C 83.769531 42.558594 84.160156 43.382812 84.816406 44.007812 C 85.308594 44.476562 85.921875 44.796875 86.570312 45.136719 C 86.90625 45.3125 87.257812 45.5 87.585938 45.703125 C 89.476562 46.882812 90.808594 48.871094 91.144531 51.019531 C 91.230469 51.570312 91.257812 52.140625 91.28125 52.6875 C 91.335938 53.867188 91.390625 54.980469 91.984375 55.898438 C 92.226562 56.273438 92.550781 56.597656 92.890625 56.9375 C 93.105469 57.152344 93.332031 57.375 93.535156 57.617188 C 94.816406 59.128906 95.316406 61.332031 94.902344 63.660156 C 94.363281 66.734375 93.332031 68.816406 91.839844 69.855469 C 90.84375 70.546875 89.644531 70.773438 88.277344 70.527344 C 88.179688 70.507812 88.082031 70.488281 87.984375 70.46875 C 87.53125 70.375 87.105469 70.289062 86.753906 70.4375 C 86.503906 70.539062 86.332031 70.738281 86.210938 71.058594 C 86.179688 71.144531 86.109375 71.210938 86.023438 71.242188 C 85.753906 71.335938 79.382812 73.53125 73.65625 71.300781 C 69.371094 69.636719 63.871094 71.230469 63.8125 71.246094 C 63.808594 71.25 63.800781 71.253906 63.792969 71.253906 C 59.304688 72.25 56.367188 72.65625 54.332031 72.65625 "/><path style=" stroke:none;fill-rule:nonzero;fill:#ad5eb5;fill-opacity:1;" d="M 78.5 80.039062 C 68.457031 80.039062 63.503906 71.195312 63.449219 71.097656 C 63.367188 70.945312 63.425781 70.757812 63.574219 70.671875 C 63.726562 70.589844 63.917969 70.644531 64 70.796875 C 64.058594 70.902344 69.867188 81.238281 81.628906 79.125 C 82.699219 78.933594 84.785156 78.105469 85.789062 76.226562 C 86.554688 74.785156 86.5 73.054688 85.632812 71.074219 C 85.5625 70.914062 85.632812 70.730469 85.792969 70.660156 C 85.949219 70.59375 86.136719 70.664062 86.203125 70.820312 C 87.15625 72.984375 87.203125 74.902344 86.339844 76.519531 C 85.226562 78.609375 82.921875 79.527344 81.738281 79.742188 C 80.605469 79.945312 79.527344 80.039062 78.5 80.039062 "/><path style=" stroke:none;fill-rule:nonzero;fill:#ad5eb5;fill-opacity:1;" d="M 55.652344 53.050781 C 54.5 53.050781 53.398438 52.808594 52.433594 52.324219 C 50.84375 51.53125 49.644531 50.125 48.585938 48.882812 L 43.382812 42.765625 C 43.269531 42.632812 43.285156 42.433594 43.417969 42.324219 C 43.550781 42.210938 43.746094 42.226562 43.859375 42.359375 L 49.0625 48.476562 C 50.082031 49.671875 51.238281 51.03125 52.710938 51.765625 C 54.347656 52.582031 56.433594 52.640625 58.4375 51.929688 C 60.097656 51.339844 61.722656 50.25 63.402344 48.601562 C 63.695312 48.3125 63.996094 48 64.109375 47.632812 C 64.296875 47.019531 63.957031 46.304688 63.640625 45.753906 C 63.121094 44.855469 61.5 42.957031 59.074219 40.402344 C 58.300781 39.589844 57.09375 39.34375 56.066406 39.789062 L 53.648438 40.847656 C 53.050781 41.109375 52.605469 41.621094 52.421875 42.257812 C 52.238281 42.90625 52.347656 43.589844 52.726562 44.140625 L 53.90625 45.859375 C 54.285156 46.410156 54.851562 46.773438 55.5 46.886719 C 56.144531 46.996094 56.792969 46.847656 57.324219 46.460938 L 58.660156 45.496094 C 58.800781 45.394531 58.996094 45.425781 59.097656 45.566406 C 59.199219 45.707031 59.167969 45.902344 59.027344 46.003906 L 57.691406 46.96875 C 57.023438 47.453125 56.207031 47.644531 55.394531 47.503906 C 54.574219 47.359375 53.863281 46.902344 53.390625 46.214844 L 52.210938 44.496094 C 51.726562 43.792969 51.582031 42.914062 51.820312 42.085938 C 52.054688 41.269531 52.628906 40.609375 53.398438 40.273438 L 55.816406 39.21875 C 57.082031 38.664062 58.574219 38.964844 59.527344 39.972656 C 61.269531 41.804688 63.488281 44.238281 64.179688 45.441406 C 64.5625 46.101562 64.96875 46.972656 64.707031 47.820312 C 64.550781 48.324219 64.191406 48.703125 63.839844 49.046875 C 62.09375 50.761719 60.394531 51.898438 58.648438 52.519531 C 57.652344 52.875 56.636719 53.050781 55.652344 53.050781 "/><path style=" stroke:none;fill-rule:nonzero;fill:#ad5eb5;fill-opacity:1;" d="M 60.769531 65.820312 C 60.246094 65.820312 59.730469 65.765625 59.25 65.710938 L 54.523438 65.175781 C 52.769531 64.980469 51.300781 63.683594 50.867188 61.949219 L 50.707031 61.3125 C 50.53125 60.613281 50.679688 59.878906 51.113281 59.304688 C 51.539062 58.742188 52.183594 58.40625 52.882812 58.382812 L 58.910156 58.1875 C 59.085938 58.179688 59.226562 58.316406 59.234375 58.492188 C 59.238281 58.664062 59.105469 58.808594 58.929688 58.8125 L 52.902344 59.007812 C 52.394531 59.023438 51.925781 59.269531 51.613281 59.679688 C 51.292969 60.105469 51.183594 60.644531 51.3125 61.164062 L 51.472656 61.796875 C 51.84375 63.277344 53.097656 64.386719 54.59375 64.554688 L 59.320312 65.089844 C 60.1875 65.1875 61.082031 65.285156 61.917969 65.058594 C 62.796875 64.820312 63.558594 64.226562 64.320312 63.589844 C 64.558594 63.390625 64.863281 63.039062 65.226562 62.542969 C 67.25 59.792969 67.179688 55.992188 65.058594 53.300781 L 62.574219 50.148438 C 62.464844 50.011719 62.488281 49.8125 62.625 49.707031 C 62.761719 49.601562 62.957031 49.625 63.066406 49.757812 L 65.550781 52.914062 C 67.84375 55.824219 67.917969 59.9375 65.730469 62.914062 C 65.332031 63.457031 65 63.835938 64.722656 64.070312 C 63.902344 64.753906 63.085938 65.390625 62.082031 65.664062 C 61.648438 65.78125 61.207031 65.820312 60.769531 65.820312 "/><path style=" stroke:none;fill-rule:nonzero;fill:#ad5eb5;fill-opacity:1;" d="M 68.011719 70.445312 C 67.84375 70.445312 67.703125 70.308594 67.699219 70.136719 L 67.660156 66.527344 C 67.640625 64.617188 68.472656 62.835938 69.945312 61.644531 L 74.71875 57.773438 C 76.113281 56.644531 78.109375 56.675781 79.46875 57.851562 L 83.097656 60.992188 C 84.425781 62.140625 84.746094 64.082031 83.859375 65.609375 L 82.710938 67.578125 C 81.921875 68.9375 80.335938 69.550781 78.851562 69.070312 L 76.796875 68.410156 C 76.035156 68.164062 75.433594 67.589844 75.144531 66.832031 C 74.855469 66.0625 74.929688 65.21875 75.347656 64.511719 L 76.4375 62.675781 C 76.527344 62.527344 76.71875 62.476562 76.867188 62.566406 C 77.015625 62.65625 77.066406 62.847656 76.976562 62.996094 L 75.886719 64.832031 C 75.566406 65.371094 75.507812 66.019531 75.730469 66.609375 C 75.949219 67.1875 76.410156 67.628906 76.992188 67.816406 L 79.042969 68.476562 C 80.246094 68.863281 81.53125 68.363281 82.171875 67.261719 L 83.316406 65.296875 C 84.054688 64.027344 83.789062 62.417969 82.6875 61.464844 L 79.058594 58.324219 C 77.929688 57.347656 76.269531 57.324219 75.113281 58.261719 L 70.339844 62.132812 C 69.019531 63.203125 68.269531 64.804688 68.289062 66.519531 L 68.328125 70.128906 C 68.328125 70.304688 68.191406 70.445312 68.015625 70.445312 C 68.015625 70.445312 68.015625 70.445312 68.011719 70.445312 "/><path style=" stroke:none;fill-rule:nonzero;fill:#ad5eb5;fill-opacity:1;" d="M 70.972656 52.25 C 70.460938 52.25 69.945312 52.140625 69.453125 51.914062 C 67.820312 51.160156 67.105469 49.203125 67.863281 47.554688 L 69.382812 44.238281 C 69.882812 43.148438 71.140625 42.632812 72.246094 43.0625 C 72.742188 43.253906 73.128906 43.652344 73.3125 44.152344 C 73.5 44.664062 73.460938 45.226562 73.203125 45.703125 L 72.476562 47.035156 C 72.394531 47.1875 72.207031 47.242188 72.054688 47.160156 C 71.902344 47.078125 71.84375 46.886719 71.929688 46.734375 L 72.652344 45.40625 C 72.824219 45.085938 72.851562 44.710938 72.726562 44.371094 C 72.605469 44.035156 72.347656 43.769531 72.019531 43.644531 C 71.222656 43.335938 70.3125 43.710938 69.953125 44.496094 L 68.433594 47.8125 C 67.820312 49.152344 68.394531 50.738281 69.714844 51.347656 C 71.179688 52.023438 72.917969 51.421875 73.675781 49.984375 L 79.128906 38.332031 C 79.203125 38.175781 79.390625 38.109375 79.546875 38.183594 C 79.703125 38.253906 79.769531 38.441406 79.699219 38.597656 L 74.238281 50.261719 C 73.574219 51.523438 72.292969 52.25 70.972656 52.25 "/><path style=" stroke:none;fill-rule:nonzero;fill:#ad5eb5;fill-opacity:1;" d="M 84.507812 57.832031 C 84.425781 57.832031 84.347656 57.828125 84.269531 57.820312 C 83.460938 57.75 82.71875 57.332031 82.234375 56.671875 L 79.273438 52.609375 C 78.21875 51.164062 78.460938 49.140625 79.828125 47.996094 L 84.464844 44.492188 C 84.601562 44.386719 84.796875 44.414062 84.902344 44.554688 C 85.003906 44.691406 84.980469 44.886719 84.839844 44.992188 L 80.21875 48.484375 C 79.117188 49.410156 78.917969 51.0625 79.777344 52.242188 L 82.742188 56.300781 C 83.117188 56.816406 83.695312 57.144531 84.324219 57.195312 C 84.949219 57.25 85.570312 57.027344 86.023438 56.585938 L 86.808594 55.824219 C 87.667969 54.992188 87.777344 53.632812 87.0625 52.667969 L 86.558594 51.980469 C 86.023438 51.257812 85.042969 51.0625 84.285156 51.535156 L 83.539062 51.996094 C 83.394531 52.085938 83.199219 52.039062 83.109375 51.894531 C 83.019531 51.746094 83.0625 51.554688 83.210938 51.460938 L 83.953125 51.003906 C 84.996094 50.359375 86.332031 50.621094 87.0625 51.609375 L 87.566406 52.292969 C 88.46875 53.511719 88.328125 55.222656 87.242188 56.273438 L 86.460938 57.035156 C 85.933594 57.546875 85.230469 57.832031 84.507812 57.832031 "/><path style=" stroke:none;fill-rule:nonzero;fill:#ad5eb5;fill-opacity:1;" d="M 88.566406 67.878906 C 88.355469 67.878906 88.144531 67.84375 87.9375 67.777344 L 87.453125 67.617188 C 86.886719 67.429688 86.433594 67.027344 86.167969 66.488281 C 85.902344 65.9375 85.871094 65.320312 86.082031 64.746094 L 87.253906 61.523438 C 87.804688 60.007812 89.421875 59.222656 90.933594 59.734375 L 94.589844 60.972656 C 94.753906 61.027344 94.84375 61.207031 94.789062 61.371094 C 94.730469 61.535156 94.554688 61.621094 94.390625 61.566406 L 90.734375 60.328125 C 89.546875 59.925781 88.277344 60.546875 87.84375 61.738281 L 86.667969 64.960938 C 86.519531 65.375 86.542969 65.820312 86.734375 66.214844 C 86.921875 66.601562 87.246094 66.886719 87.648438 67.019531 L 88.132812 67.179688 C 88.496094 67.300781 88.878906 67.265625 89.214844 67.082031 C 89.558594 66.898438 89.804688 66.585938 89.90625 66.199219 L 90.054688 65.636719 C 90.234375 64.957031 89.945312 64.234375 89.347656 63.875 L 88.871094 63.589844 C 88.726562 63.5 88.675781 63.308594 88.765625 63.160156 C 88.855469 63.011719 89.046875 62.964844 89.195312 63.054688 L 89.671875 63.339844 C 90.503906 63.839844 90.910156 64.851562 90.660156 65.796875 L 90.511719 66.363281 C 90.367188 66.90625 90.003906 67.367188 89.511719 67.632812 C 89.214844 67.796875 88.890625 67.878906 88.566406 67.878906 "/><path style=" stroke:none;fill-rule:nonzero;fill:#ad5eb5;fill-opacity:1;" d="M 43.808594 59.386719 C 43.699219 59.386719 43.589844 59.375 43.476562 59.355469 C 42.953125 59.265625 42.503906 58.972656 42.207031 58.527344 C 41.589844 57.601562 41.757812 56.363281 42.597656 55.644531 L 44.480469 54.03125 C 44.609375 53.917969 44.808594 53.933594 44.921875 54.066406 C 45.035156 54.195312 45.019531 54.394531 44.886719 54.507812 L 43.003906 56.117188 C 42.40625 56.632812 42.285156 57.519531 42.726562 58.179688 C 42.925781 58.480469 43.234375 58.679688 43.585938 58.742188 C 43.933594 58.800781 44.28125 58.71875 44.570312 58.503906 L 47.253906 56.515625 C 47.730469 56.160156 48.039062 55.613281 48.101562 55.015625 C 48.164062 54.414062 47.96875 53.8125 47.570312 53.363281 L 45.46875 51.003906 C 44.578125 50.007812 43.113281 49.789062 41.984375 50.484375 L 37.671875 53.136719 C 37.523438 53.230469 37.332031 53.183594 37.242188 53.035156 C 37.152344 52.886719 37.195312 52.695312 37.34375 52.605469 L 41.65625 49.953125 C 43.046875 49.097656 44.84375 49.363281 45.933594 50.585938 L 48.039062 52.945312 C 48.554688 53.527344 48.804688 54.304688 48.726562 55.082031 C 48.644531 55.851562 48.246094 56.558594 47.625 57.019531 L 44.941406 59.007812 C 44.609375 59.257812 44.214844 59.386719 43.808594 59.386719 "/><path style=" stroke:none;fill-rule:nonzero;fill:#ad5eb5;fill-opacity:1;" d="M 57.460938 72.445312 C 57.441406 72.445312 57.421875 72.445312 57.402344 72.441406 C 57.234375 72.40625 57.121094 72.246094 57.152344 72.074219 L 57.40625 70.710938 C 57.503906 70.179688 57.386719 69.648438 57.070312 69.214844 C 56.761719 68.792969 56.308594 68.527344 55.792969 68.460938 L 52.507812 68.050781 C 52.335938 68.03125 52.214844 67.875 52.234375 67.703125 C 52.257812 67.53125 52.410156 67.410156 52.585938 67.429688 L 55.871094 67.839844 C 56.558594 67.925781 57.164062 68.285156 57.574219 68.847656 C 57.988281 69.410156 58.152344 70.132812 58.023438 70.824219 L 57.769531 72.191406 C 57.738281 72.339844 57.609375 72.445312 57.460938 72.445312 "/><path style=" stroke:none;fill-rule:nonzero;fill:#ad5eb5;fill-opacity:1;" d="M 66.570312 41.503906 C 65.378906 41.503906 64.222656 40.933594 63.492188 39.898438 L 59.269531 33.894531 C 59.167969 33.75 59.203125 33.554688 59.34375 33.457031 C 59.484375 33.355469 59.679688 33.390625 59.78125 33.53125 L 64.003906 39.539062 C 64.886719 40.792969 66.523438 41.230469 67.894531 40.578125 L 69.132812 39.996094 C 69.503906 39.816406 69.78125 39.484375 69.886719 39.082031 C 69.996094 38.667969 69.917969 38.234375 69.675781 37.890625 C 69.304688 37.363281 68.632812 37.164062 68.042969 37.414062 L 66.425781 38.09375 C 66.265625 38.160156 66.085938 38.085938 66.015625 37.925781 C 65.949219 37.765625 66.023438 37.582031 66.183594 37.515625 L 67.800781 36.835938 C 68.664062 36.472656 69.644531 36.757812 70.1875 37.53125 C 70.539062 38.027344 70.648438 38.652344 70.492188 39.242188 C 70.339844 39.824219 69.941406 40.304688 69.398438 40.5625 L 68.164062 41.144531 C 67.648438 41.390625 67.105469 41.503906 66.570312 41.503906 "/><path style=" stroke:none;fill-rule:nonzero;fill:#ad5eb5;fill-opacity:1;" d="M 89.113281 57.683594 C 88.996094 57.683594 88.886719 57.621094 88.832031 57.511719 C 88.753906 57.355469 88.816406 57.167969 88.972656 57.089844 L 91.582031 55.789062 C 91.738281 55.710938 91.925781 55.773438 92.003906 55.929688 C 92.078125 56.085938 92.015625 56.273438 91.863281 56.347656 L 89.25 57.652344 C 89.207031 57.675781 89.160156 57.683594 89.113281 57.683594 "/><path style=" stroke:none;fill-rule:nonzero;fill:#ad5eb5;fill-opacity:1;" d="M 74.207031 40.949219 C 74.175781 40.949219 74.140625 40.945312 74.109375 40.933594 C 73.945312 40.875 73.855469 40.699219 73.914062 40.535156 L 75.179688 36.78125 C 75.234375 36.617188 75.410156 36.53125 75.574219 36.585938 C 75.738281 36.640625 75.828125 36.820312 75.773438 36.984375 L 74.507812 40.734375 C 74.460938 40.867188 74.339844 40.949219 74.207031 40.949219 "/><path style=" stroke:none;fill-rule:nonzero;fill:#ad5eb5;fill-opacity:1;" d="M 57.046875 37.050781 C 56.941406 37.050781 56.839844 37 56.78125 36.902344 L 55.660156 35.070312 C 55.570312 34.925781 55.617188 34.730469 55.765625 34.640625 C 55.910156 34.550781 56.105469 34.597656 56.195312 34.746094 L 57.316406 36.574219 C 57.40625 36.722656 57.359375 36.914062 57.210938 37.003906 C 57.160156 37.035156 57.105469 37.050781 57.046875 37.050781 "/><path style=" stroke:none;fill-rule:nonzero;fill:#9ecbee;fill-opacity:1;" d="M 46.980469 63.109375 C 46.773438 63.109375 46.5625 63.050781 46.375 62.929688 C 45.871094 62.59375 45.734375 61.914062 46.066406 61.410156 L 48.75 57.359375 C 49.621094 56.105469 50.9375 55.25 52.46875 54.9375 L 59.675781 53.628906 C 61.179688 53.324219 62.765625 53.9375 63.699219 55.195312 C 65.039062 57.007812 65.070312 59.46875 63.785156 61.316406 C 62.96875 62.488281 61.40625 63.089844 59.5 62.96875 L 53.847656 62.550781 C 53.242188 62.503906 52.789062 61.980469 52.835938 61.375 C 52.878906 60.773438 53.410156 60.320312 54.007812 60.363281 L 59.648438 60.785156 C 60.492188 60.835938 61.558594 60.675781 61.984375 60.066406 C 62.734375 58.988281 62.714844 57.554688 61.933594 56.496094 C 61.507812 55.917969 60.785156 55.640625 60.09375 55.78125 L 52.886719 57.089844 C 51.917969 57.285156 51.105469 57.804688 50.5625 58.589844 L 47.894531 62.621094 C 47.683594 62.9375 47.335938 63.109375 46.980469 63.109375 "/><path style=" stroke:none;fill-rule:nonzero;fill:#9ecbee;fill-opacity:1;" d="M 82.5 63.75 C 82.5 64.972656 81.523438 65.964844 80.316406 65.964844 C 79.113281 65.964844 78.136719 64.972656 78.136719 63.75 C 78.136719 62.527344 79.113281 61.535156 80.316406 61.535156 C 81.523438 61.535156 82.5 62.527344 82.5 63.75 "/><path style=" stroke:none;fill-rule:nonzero;fill:#9ecbee;fill-opacity:1;" d="M 89.125 48.890625 C 87.320312 48.890625 85.855469 47.425781 85.855469 45.617188 L 85.855469 45.519531 C 85.855469 43.710938 87.320312 42.246094 89.125 42.246094 C 90.933594 42.246094 92.398438 43.710938 92.398438 45.519531 L 92.398438 45.617188 C 92.398438 47.425781 90.933594 48.890625 89.125 48.890625 "/><path style=" stroke:none;fill-rule:nonzero;fill:#9ecbee;fill-opacity:1;" d="M 95.503906 37.691406 L 94.566406 37.691406 C 94.480469 37.691406 94.410156 37.621094 94.410156 37.535156 C 94.410156 37.449219 94.480469 37.378906 94.566406 37.378906 L 95.503906 37.378906 C 95.59375 37.382812 95.664062 37.449219 95.664062 37.539062 C 95.664062 37.625 95.59375 37.691406 95.503906 37.691406 Z M 97.382812 37.695312 L 96.445312 37.695312 C 96.359375 37.695312 96.289062 37.625 96.289062 37.539062 C 96.289062 37.453125 96.359375 37.382812 96.445312 37.382812 L 97.386719 37.382812 C 97.472656 37.386719 97.542969 37.453125 97.539062 37.539062 C 97.539062 37.628906 97.472656 37.695312 97.382812 37.695312 Z M 99.261719 37.699219 L 98.324219 37.699219 C 98.238281 37.699219 98.167969 37.628906 98.167969 37.542969 C 98.167969 37.457031 98.238281 37.386719 98.324219 37.386719 L 99.261719 37.390625 C 99.351562 37.390625 99.417969 37.460938 99.417969 37.546875 C 99.417969 37.632812 99.347656 37.699219 99.261719 37.699219 Z M 101.140625 37.703125 L 100.203125 37.703125 C 100.117188 37.703125 100.046875 37.632812 100.046875 37.546875 C 100.046875 37.460938 100.117188 37.390625 100.203125 37.390625 L 101.140625 37.390625 C 101.230469 37.390625 101.300781 37.460938 101.296875 37.550781 C 101.296875 37.636719 101.230469 37.703125 101.140625 37.703125 Z M 103.019531 37.707031 L 102.082031 37.707031 C 101.996094 37.707031 101.925781 37.636719 101.925781 37.550781 C 101.925781 37.464844 101.996094 37.394531 102.082031 37.394531 L 103.019531 37.394531 C 103.109375 37.394531 103.175781 37.464844 103.175781 37.554688 C 103.175781 37.640625 103.105469 37.707031 103.019531 37.707031 Z M 104.6875 37.710938 C 104.683594 37.710938 104.683594 37.710938 104.683594 37.710938 L 103.960938 37.710938 C 103.875 37.710938 103.804688 37.640625 103.804688 37.554688 C 103.804688 37.46875 103.875 37.398438 103.960938 37.398438 L 104.6875 37.398438 C 104.773438 37.398438 104.84375 37.46875 104.84375 37.554688 C 104.84375 37.640625 104.773438 37.710938 104.6875 37.710938 Z M 93.46875 39.183594 C 93.4375 39.183594 93.40625 39.171875 93.378906 39.15625 C 93.308594 39.105469 93.292969 39.007812 93.339844 38.9375 L 93.875 38.164062 C 93.925781 38.09375 94.023438 38.074219 94.09375 38.125 C 94.164062 38.175781 94.179688 38.273438 94.132812 38.34375 L 93.597656 39.117188 C 93.566406 39.160156 93.519531 39.183594 93.46875 39.183594 Z M 92.402344 40.726562 C 92.371094 40.726562 92.339844 40.71875 92.3125 40.699219 C 92.242188 40.652344 92.222656 40.550781 92.273438 40.480469 L 92.804688 39.707031 C 92.855469 39.636719 92.953125 39.621094 93.023438 39.667969 C 93.09375 39.71875 93.113281 39.816406 93.0625 39.886719 L 92.527344 40.660156 C 92.5 40.703125 92.449219 40.726562 92.402344 40.726562 Z M 91.332031 42.269531 C 91.300781 42.269531 91.269531 42.261719 91.242188 42.242188 C 91.171875 42.195312 91.152344 42.097656 91.203125 42.027344 L 91.738281 41.253906 C 91.785156 41.183594 91.882812 41.164062 91.957031 41.214844 C 92.027344 41.261719 92.042969 41.359375 91.996094 41.433594 L 91.460938 42.203125 C 91.429688 42.246094 91.382812 42.269531 91.332031 42.269531 Z M 90.261719 43.816406 C 90.230469 43.816406 90.199219 43.808594 90.171875 43.789062 C 90.101562 43.738281 90.085938 43.640625 90.132812 43.570312 L 90.667969 42.796875 C 90.71875 42.726562 90.816406 42.707031 90.886719 42.757812 C 90.957031 42.808594 90.976562 42.90625 90.925781 42.976562 L 90.390625 43.75 C 90.363281 43.792969 90.3125 43.816406 90.261719 43.816406 "/><path style=" stroke:none;fill-rule:nonzero;fill:#9ecbee;fill-opacity:1;" d="M 104.855469 39.203125 L 97.367188 39.195312 C 97.28125 39.195312 97.210938 39.125 97.210938 39.039062 C 97.210938 38.953125 97.28125 38.882812 97.367188 38.882812 L 104.855469 38.890625 C 104.941406 38.890625 105.011719 38.960938 105.011719 39.046875 C 105.011719 39.132812 104.941406 39.203125 104.855469 39.203125 "/><path style=" stroke:none;fill-rule:nonzero;fill:#9ecbee;fill-opacity:1;" d="M 104.972656 40.433594 L 97.484375 40.429688 C 97.394531 40.429688 97.328125 40.359375 97.328125 40.269531 C 97.328125 40.1875 97.398438 40.117188 97.484375 40.117188 L 104.972656 40.121094 C 105.058594 40.121094 105.128906 40.191406 105.128906 40.28125 C 105.128906 40.367188 105.058594 40.433594 104.972656 40.433594 "/><path style=" stroke:none;fill-rule:nonzero;fill:#9ecbee;fill-opacity:1;" d="M 105.089844 41.667969 L 97.597656 41.664062 C 97.511719 41.664062 97.441406 41.59375 97.441406 41.503906 C 97.441406 41.417969 97.511719 41.347656 97.597656 41.347656 L 97.601562 41.347656 L 105.089844 41.355469 C 105.175781 41.355469 105.246094 41.425781 105.246094 41.511719 C 105.246094 41.601562 105.175781 41.667969 105.089844 41.667969 "/><path style=" stroke:none;fill-rule:nonzero;fill:#9ecbee;fill-opacity:1;" d="M 105.207031 42.902344 L 97.714844 42.894531 C 97.628906 42.894531 97.558594 42.824219 97.558594 42.738281 C 97.558594 42.652344 97.628906 42.582031 97.714844 42.582031 L 105.207031 42.589844 C 105.292969 42.589844 105.363281 42.660156 105.363281 42.75 C 105.363281 42.832031 105.292969 42.902344 105.207031 42.902344 "/><path style=" stroke:none;fill-rule:nonzero;fill:#9ecbee;fill-opacity:1;" d="M 97.832031 44.128906 C 97.746094 44.128906 97.675781 44.058594 97.675781 43.972656 C 97.675781 43.886719 97.746094 43.816406 97.832031 43.816406 L 103.984375 43.804688 C 104.074219 43.804688 104.140625 43.875 104.140625 43.960938 C 104.144531 44.046875 104.074219 44.117188 103.984375 44.117188 L 97.832031 44.128906 "/><path style=" stroke:none;fill-rule:nonzero;fill:#9ecbee;fill-opacity:1;" d="M 34.449219 38.117188 L 26.957031 38.109375 C 26.871094 38.109375 26.800781 38.039062 26.800781 37.953125 C 26.800781 37.867188 26.871094 37.796875 26.957031 37.796875 L 34.449219 37.804688 C 34.535156 37.804688 34.605469 37.875 34.605469 37.960938 C 34.605469 38.046875 34.535156 38.117188 34.449219 38.117188 "/><path style=" stroke:none;fill-rule:nonzero;fill:#9ecbee;fill-opacity:1;" d="M 34.566406 39.351562 L 27.074219 39.34375 C 26.988281 39.34375 26.917969 39.273438 26.917969 39.1875 C 26.917969 39.101562 26.988281 39.03125 27.074219 39.03125 L 34.566406 39.039062 C 34.652344 39.039062 34.722656 39.105469 34.722656 39.195312 C 34.722656 39.28125 34.652344 39.351562 34.566406 39.351562 "/><path style=" stroke:none;fill-rule:nonzero;fill:#9ecbee;fill-opacity:1;" d="M 27.191406 40.578125 C 27.105469 40.578125 27.035156 40.507812 27.035156 40.421875 C 27.035156 40.335938 27.105469 40.265625 27.191406 40.265625 L 33.34375 40.25 C 33.429688 40.25 33.5 40.320312 33.5 40.40625 C 33.5 40.492188 33.429688 40.5625 33.34375 40.5625 L 27.191406 40.578125 "/><path style=" stroke:none;fill-rule:nonzero;fill:#9ecbee;fill-opacity:1;" d="M 107.535156 65.503906 L 100.046875 65.5 C 99.957031 65.5 99.886719 65.429688 99.886719 65.34375 C 99.886719 65.253906 99.960938 65.1875 100.046875 65.1875 L 107.535156 65.191406 C 107.621094 65.195312 107.691406 65.261719 107.691406 65.351562 C 107.691406 65.4375 107.621094 65.503906 107.535156 65.503906 "/><path style=" stroke:none;fill-rule:nonzero;fill:#9ecbee;fill-opacity:1;" d="M 100.160156 66.730469 C 100.074219 66.730469 100.003906 66.660156 100.003906 66.574219 C 100.003906 66.488281 100.074219 66.417969 100.160156 66.417969 L 106.316406 66.40625 C 106.402344 66.40625 106.472656 66.476562 106.472656 66.5625 C 106.472656 66.648438 106.402344 66.71875 106.316406 66.71875 L 100.164062 66.730469 C 100.164062 66.730469 100.164062 66.730469 100.160156 66.730469 "/><path style=" stroke:none;fill-rule:nonzero;fill:#9ecbee;fill-opacity:1;" d="M 27.484375 36.621094 L 26.546875 36.621094 C 26.460938 36.621094 26.390625 36.550781 26.390625 36.464844 C 26.390625 36.378906 26.460938 36.308594 26.546875 36.308594 L 27.484375 36.308594 C 27.570312 36.308594 27.640625 36.378906 27.640625 36.464844 C 27.640625 36.550781 27.570312 36.621094 27.484375 36.621094 Z M 29.363281 36.621094 L 28.425781 36.621094 C 28.339844 36.621094 28.269531 36.550781 28.269531 36.464844 C 28.269531 36.378906 28.339844 36.308594 28.425781 36.308594 L 29.363281 36.308594 C 29.449219 36.308594 29.519531 36.378906 29.519531 36.464844 C 29.519531 36.550781 29.449219 36.621094 29.363281 36.621094 Z M 31.242188 36.621094 L 30.304688 36.621094 C 30.21875 36.621094 30.148438 36.550781 30.148438 36.464844 C 30.148438 36.378906 30.21875 36.308594 30.304688 36.308594 L 31.242188 36.308594 C 31.328125 36.308594 31.398438 36.378906 31.398438 36.464844 C 31.398438 36.550781 31.328125 36.621094 31.242188 36.621094 Z M 33.121094 36.621094 L 32.183594 36.621094 C 32.097656 36.621094 32.027344 36.550781 32.027344 36.464844 C 32.027344 36.378906 32.097656 36.308594 32.183594 36.308594 L 33.121094 36.308594 C 33.207031 36.308594 33.277344 36.378906 33.277344 36.464844 C 33.277344 36.550781 33.207031 36.621094 33.121094 36.621094 Z M 35 36.621094 L 34.0625 36.621094 C 33.976562 36.621094 33.90625 36.550781 33.90625 36.464844 C 33.90625 36.378906 33.976562 36.308594 34.0625 36.308594 L 35 36.308594 C 35.085938 36.308594 35.15625 36.378906 35.15625 36.464844 C 35.15625 36.550781 35.085938 36.621094 35 36.621094 Z M 36.558594 37.304688 C 36.515625 37.304688 36.472656 37.285156 36.441406 37.25 L 35.910156 36.617188 C 35.835938 36.601562 35.785156 36.539062 35.785156 36.464844 C 35.785156 36.378906 35.855469 36.308594 35.941406 36.308594 L 35.984375 36.308594 C 36.03125 36.308594 36.074219 36.328125 36.105469 36.363281 L 36.679688 37.046875 C 36.734375 37.113281 36.726562 37.210938 36.660156 37.269531 C 36.632812 37.292969 36.597656 37.304688 36.558594 37.304688 Z M 37.769531 38.742188 C 37.722656 38.742188 37.679688 38.722656 37.648438 38.6875 L 37.042969 37.96875 C 36.988281 37.902344 36.996094 37.804688 37.0625 37.746094 C 37.128906 37.691406 37.230469 37.699219 37.285156 37.765625 L 37.886719 38.484375 C 37.945312 38.554688 37.933594 38.652344 37.871094 38.707031 C 37.839844 38.730469 37.804688 38.742188 37.769531 38.742188 Z M 38.976562 40.179688 C 38.933594 40.179688 38.886719 40.164062 38.855469 40.125 L 38.253906 39.40625 C 38.195312 39.339844 38.207031 39.242188 38.273438 39.183594 C 38.339844 39.128906 38.4375 39.140625 38.492188 39.207031 L 39.097656 39.925781 C 39.152344 39.992188 39.144531 40.089844 39.078125 40.144531 C 39.046875 40.167969 39.011719 40.179688 38.976562 40.179688 Z M 40.183594 41.621094 C 40.140625 41.621094 40.097656 41.601562 40.066406 41.5625 L 39.460938 40.84375 C 39.40625 40.777344 39.414062 40.679688 39.480469 40.625 C 39.546875 40.570312 39.644531 40.578125 39.699219 40.644531 L 40.304688 41.363281 C 40.359375 41.429688 40.351562 41.527344 40.285156 41.582031 C 40.257812 41.605469 40.21875 41.621094 40.183594 41.621094 Z M 41.394531 43.058594 C 41.347656 43.058594 41.304688 43.039062 41.273438 43.003906 L 40.667969 42.28125 C 40.613281 42.214844 40.621094 42.117188 40.6875 42.0625 C 40.753906 42.007812 40.851562 42.015625 40.910156 42.082031 L 41.511719 42.800781 C 41.570312 42.867188 41.558594 42.964844 41.492188 43.019531 C 41.464844 43.046875 41.429688 43.058594 41.394531 43.058594 Z M 42.601562 44.496094 C 42.554688 44.496094 42.511719 44.476562 42.480469 44.441406 L 41.878906 43.722656 C 41.820312 43.65625 41.832031 43.554688 41.894531 43.5 C 41.964844 43.445312 42.0625 43.453125 42.117188 43.519531 L 42.722656 44.238281 C 42.777344 44.304688 42.769531 44.402344 42.703125 44.460938 C 42.671875 44.484375 42.636719 44.496094 42.601562 44.496094 Z M 43.808594 45.933594 C 43.765625 45.933594 43.71875 45.914062 43.691406 45.878906 L 43.085938 45.160156 C 43.03125 45.09375 43.039062 44.992188 43.105469 44.9375 C 43.171875 44.882812 43.269531 44.890625 43.324219 44.957031 L 43.929688 45.675781 C 43.984375 45.742188 43.976562 45.84375 43.910156 45.898438 C 43.878906 45.921875 43.84375 45.933594 43.808594 45.933594 Z M 45.015625 47.371094 C 44.972656 47.371094 44.929688 47.355469 44.898438 47.316406 L 44.292969 46.597656 C 44.238281 46.53125 44.246094 46.433594 44.3125 46.375 C 44.378906 46.320312 44.476562 46.332031 44.535156 46.398438 L 45.136719 47.117188 C 45.191406 47.179688 45.183594 47.28125 45.117188 47.335938 C 45.089844 47.359375 45.054688 47.371094 45.015625 47.371094 Z M 46.226562 48.8125 C 46.179688 48.8125 46.136719 48.789062 46.105469 48.753906 L 45.5 48.035156 C 45.445312 47.96875 45.453125 47.871094 45.519531 47.816406 C 45.585938 47.757812 45.6875 47.769531 45.742188 47.832031 L 46.34375 48.554688 C 46.402344 48.621094 46.390625 48.71875 46.328125 48.773438 C 46.296875 48.796875 46.261719 48.8125 46.226562 48.8125 Z M 47.433594 50.25 C 47.390625 50.25 47.34375 50.230469 47.3125 50.191406 L 46.710938 49.472656 C 46.652344 49.40625 46.664062 49.308594 46.730469 49.253906 C 46.796875 49.199219 46.894531 49.207031 46.949219 49.273438 L 47.554688 49.992188 C 47.609375 50.058594 47.601562 50.15625 47.535156 50.210938 C 47.503906 50.238281 47.46875 50.25 47.433594 50.25 Z M 48.640625 51.6875 C 48.597656 51.6875 48.554688 51.667969 48.523438 51.632812 L 47.917969 50.910156 C 47.863281 50.847656 47.871094 50.746094 47.9375 50.691406 C 48.003906 50.636719 48.101562 50.644531 48.15625 50.710938 L 48.761719 51.429688 C 48.816406 51.496094 48.808594 51.59375 48.742188 51.648438 C 48.714844 51.675781 48.675781 51.6875 48.640625 51.6875 Z M 49.851562 53.125 C 49.804688 53.125 49.761719 53.105469 49.730469 53.070312 L 49.125 52.351562 C 49.070312 52.285156 49.078125 52.183594 49.144531 52.128906 C 49.210938 52.074219 49.3125 52.082031 49.367188 52.148438 L 49.96875 52.867188 C 50.023438 52.933594 50.015625 53.03125 49.949219 53.089844 C 49.921875 53.113281 49.886719 53.125 49.851562 53.125 "/><path style=" stroke:none;fill-rule:nonzero;fill:#9ecbee;fill-opacity:1;" d="M 81.257812 63.90625 L 80.316406 63.90625 C 80.230469 63.90625 80.160156 63.835938 80.160156 63.75 C 80.160156 63.664062 80.230469 63.59375 80.316406 63.59375 L 81.257812 63.59375 C 81.34375 63.59375 81.414062 63.664062 81.414062 63.75 C 81.414062 63.835938 81.34375 63.90625 81.257812 63.90625 Z M 83.136719 63.90625 L 82.195312 63.90625 C 82.109375 63.90625 82.039062 63.835938 82.039062 63.75 C 82.039062 63.664062 82.109375 63.59375 82.195312 63.59375 L 83.136719 63.59375 C 83.222656 63.59375 83.292969 63.664062 83.292969 63.75 C 83.292969 63.835938 83.222656 63.90625 83.136719 63.90625 Z M 85.015625 63.90625 L 84.074219 63.90625 C 83.988281 63.90625 83.917969 63.835938 83.917969 63.75 C 83.917969 63.664062 83.988281 63.59375 84.074219 63.59375 L 85.015625 63.59375 C 85.101562 63.59375 85.171875 63.664062 85.171875 63.75 C 85.171875 63.835938 85.101562 63.90625 85.015625 63.90625 Z M 86.894531 63.90625 L 85.953125 63.90625 C 85.867188 63.90625 85.796875 63.835938 85.796875 63.75 C 85.796875 63.664062 85.867188 63.59375 85.953125 63.59375 L 86.894531 63.59375 C 86.980469 63.59375 87.050781 63.664062 87.050781 63.75 C 87.050781 63.835938 86.980469 63.90625 86.894531 63.90625 Z M 88.773438 63.90625 L 87.832031 63.90625 C 87.746094 63.90625 87.675781 63.835938 87.675781 63.75 C 87.675781 63.664062 87.746094 63.59375 87.832031 63.59375 L 88.773438 63.59375 C 88.859375 63.59375 88.929688 63.664062 88.929688 63.75 C 88.929688 63.835938 88.859375 63.90625 88.773438 63.90625 Z M 90.652344 63.90625 L 89.710938 63.90625 C 89.625 63.90625 89.554688 63.835938 89.554688 63.75 C 89.554688 63.664062 89.625 63.59375 89.710938 63.59375 L 90.652344 63.59375 C 90.738281 63.59375 90.808594 63.664062 90.808594 63.75 C 90.808594 63.835938 90.738281 63.90625 90.652344 63.90625 Z M 92.53125 63.90625 L 91.589844 63.90625 C 91.503906 63.90625 91.433594 63.835938 91.433594 63.75 C 91.433594 63.664062 91.503906 63.59375 91.589844 63.59375 L 92.53125 63.59375 C 92.617188 63.59375 92.6875 63.664062 92.6875 63.75 C 92.6875 63.835938 92.617188 63.90625 92.53125 63.90625 Z M 94.410156 63.90625 L 93.46875 63.90625 C 93.382812 63.90625 93.3125 63.835938 93.3125 63.75 C 93.3125 63.664062 93.382812 63.59375 93.46875 63.59375 L 94.410156 63.59375 C 94.496094 63.59375 94.566406 63.664062 94.566406 63.75 C 94.566406 63.835938 94.496094 63.90625 94.410156 63.90625 Z M 96.289062 63.90625 L 95.347656 63.90625 C 95.261719 63.90625 95.191406 63.835938 95.191406 63.75 C 95.191406 63.664062 95.261719 63.59375 95.347656 63.59375 L 96.289062 63.59375 C 96.375 63.59375 96.445312 63.664062 96.445312 63.75 C 96.445312 63.835938 96.375 63.90625 96.289062 63.90625 Z M 98.164062 63.90625 L 97.226562 63.90625 C 97.140625 63.90625 97.070312 63.835938 97.070312 63.75 C 97.070312 63.664062 97.140625 63.59375 97.226562 63.59375 L 98.164062 63.59375 C 98.253906 63.59375 98.324219 63.664062 98.324219 63.75 C 98.324219 63.835938 98.253906 63.90625 98.164062 63.90625 Z M 100.046875 63.90625 L 99.105469 63.90625 C 99.019531 63.90625 98.949219 63.835938 98.949219 63.75 C 98.949219 63.664062 99.019531 63.59375 99.105469 63.59375 L 100.046875 63.59375 C 100.132812 63.59375 100.203125 63.664062 100.203125 63.75 C 100.203125 63.835938 100.132812 63.90625 100.046875 63.90625 Z M 101.925781 63.90625 L 100.984375 63.90625 C 100.898438 63.90625 100.828125 63.835938 100.828125 63.75 C 100.828125 63.664062 100.898438 63.59375 100.984375 63.59375 L 101.925781 63.59375 C 102.011719 63.59375 102.082031 63.664062 102.082031 63.75 C 102.082031 63.835938 102.011719 63.90625 101.925781 63.90625 Z M 103.800781 63.90625 L 102.863281 63.90625 C 102.777344 63.90625 102.707031 63.835938 102.707031 63.75 C 102.707031 63.664062 102.777344 63.59375 102.863281 63.59375 L 103.800781 63.59375 C 103.890625 63.59375 103.960938 63.664062 103.960938 63.75 C 103.960938 63.835938 103.890625 63.90625 103.800781 63.90625 Z M 105.679688 63.90625 L 104.742188 63.90625 C 104.65625 63.90625 104.585938 63.835938 104.585938 63.75 C 104.585938 63.664062 104.65625 63.59375 104.742188 63.59375 L 105.679688 63.59375 C 105.769531 63.59375 105.839844 63.664062 105.839844 63.75 C 105.839844 63.835938 105.769531 63.90625 105.679688 63.90625 Z M 107.304688 63.90625 L 106.621094 63.90625 C 106.535156 63.90625 106.464844 63.835938 106.464844 63.75 C 106.464844 63.664062 106.535156 63.59375 106.621094 63.59375 L 107.304688 63.59375 C 107.390625 63.59375 107.460938 63.664062 107.460938 63.75 C 107.460938 63.835938 107.390625 63.90625 107.304688 63.90625 "/><path style=" stroke:none;fill-rule:nonzero;fill:#9ecbee;fill-opacity:1;" d="M 95.519531 82.195312 L 115.550781 82.195312 C 115.933594 82.195312 116.292969 82.023438 116.53125 81.71875 C 116.78125 81.410156 116.875 81.007812 116.789062 80.621094 L 115.046875 72.8125 C 113.605469 72.828125 100.335938 72.960938 95.359375 72.894531 C 94.960938 72.886719 94.5625 73.070312 94.296875 73.386719 C 94.023438 73.714844 93.914062 74.144531 94 74.570312 Z M 115.550781 82.507812 L 95.390625 82.507812 C 95.316406 82.507812 95.253906 82.453125 95.238281 82.378906 L 93.691406 74.628906 C 93.589844 74.113281 93.722656 73.589844 94.054688 73.1875 C 94.382812 72.796875 94.871094 72.582031 95.367188 72.582031 C 100.597656 72.652344 115.027344 72.5 115.171875 72.496094 C 115.253906 72.496094 115.308594 72.546875 115.324219 72.621094 L 117.09375 80.550781 C 117.199219 81.035156 117.085938 81.53125 116.777344 81.914062 C 116.476562 82.292969 116.027344 82.507812 115.550781 82.507812 "/><path style=" stroke:none;fill-rule:nonzero;fill:#9ecbee;fill-opacity:1;" d="M 98.890625 80.410156 C 98.550781 80.410156 98.199219 80.285156 97.933594 80.089844 C 97.609375 79.855469 97.359375 79.542969 97.121094 79.238281 C 97.011719 79.105469 96.90625 78.96875 96.792969 78.84375 C 96.550781 78.566406 96.058594 78.117188 95.511719 78.171875 C 95.273438 78.199219 95.03125 78.386719 94.921875 78.632812 C 94.875 78.738281 94.816406 78.941406 94.945312 79.121094 C 94.996094 79.191406 94.980469 79.289062 94.910156 79.339844 C 94.839844 79.390625 94.742188 79.375 94.691406 79.304688 C 94.53125 79.082031 94.507812 78.789062 94.636719 78.503906 C 94.792969 78.15625 95.128906 77.898438 95.480469 77.863281 C 96.132812 77.792969 96.683594 78.246094 97.027344 78.636719 C 97.144531 78.765625 97.253906 78.90625 97.363281 79.042969 C 97.601562 79.34375 97.828125 79.628906 98.117188 79.835938 C 98.5 80.113281 99.089844 80.230469 99.433594 79.898438 C 99.785156 79.558594 99.714844 78.921875 99.664062 78.457031 C 99.582031 77.699219 99.527344 76.710938 99.816406 75.796875 C 100.125 74.832031 100.789062 74.097656 101.597656 73.835938 C 102.832031 73.441406 104.085938 74.191406 104.785156 74.957031 C 105.34375 75.5625 105.746094 76.292969 106.140625 76.996094 C 106.300781 77.285156 106.464844 77.578125 106.640625 77.863281 C 106.9375 78.351562 107.316406 78.886719 107.863281 79.15625 C 108.34375 79.394531 109.039062 79.367188 109.375 78.910156 C 109.59375 78.613281 109.644531 78.175781 109.691406 77.753906 C 109.761719 77.144531 109.832031 76.515625 110.417969 76.273438 C 110.578125 76.210938 110.761719 76.1875 110.984375 76.203125 C 111.59375 76.253906 112.175781 76.585938 112.53125 77.09375 C 112.6875 77.3125 112.800781 77.558594 112.90625 77.800781 C 113 78.011719 113.089844 78.210938 113.210938 78.394531 C 113.445312 78.753906 113.871094 79.042969 114.238281 78.894531 C 114.511719 78.78125 114.652344 78.480469 114.804688 78.160156 C 114.863281 78.027344 114.929688 77.894531 115.003906 77.769531 C 115.199219 77.4375 115.632812 77.210938 115.984375 77.246094 C 116.207031 77.269531 116.375 77.402344 116.445312 77.609375 C 116.472656 77.691406 116.425781 77.78125 116.34375 77.808594 C 116.261719 77.835938 116.175781 77.789062 116.148438 77.710938 C 116.125 77.652344 116.085938 77.570312 115.949219 77.558594 C 115.71875 77.53125 115.402344 77.707031 115.273438 77.929688 C 115.203125 78.042969 115.144531 78.167969 115.085938 78.292969 C 114.917969 78.652344 114.742188 79.027344 114.355469 79.183594 C 113.832031 79.394531 113.253906 79.035156 112.949219 78.566406 C 112.816406 78.359375 112.714844 78.140625 112.621094 77.925781 C 112.515625 77.691406 112.414062 77.46875 112.277344 77.273438 C 111.972656 76.839844 111.476562 76.558594 110.957031 76.515625 C 110.785156 76.503906 110.648438 76.519531 110.539062 76.5625 C 110.121094 76.734375 110.066406 77.222656 110.003906 77.789062 C 109.949219 78.25 109.894531 78.730469 109.628906 79.097656 C 109.179688 79.707031 108.3125 79.730469 107.722656 79.4375 C 107.105469 79.132812 106.695312 78.550781 106.371094 78.027344 C 106.195312 77.738281 106.03125 77.441406 105.867188 77.148438 C 105.484375 76.457031 105.085938 75.75 104.554688 75.167969 C 103.917969 74.472656 102.785156 73.78125 101.695312 74.136719 C 100.992188 74.359375 100.386719 75.035156 100.117188 75.890625 C 99.84375 76.75 99.898438 77.695312 99.976562 78.425781 C 100.035156 78.953125 100.113281 79.679688 99.652344 80.121094 C 99.441406 80.324219 99.171875 80.410156 98.890625 80.410156 "/></g></svg>